<svg width="707.000000" height="103.000000" viewBox="0 0 707 103" fill="none" xmlns="http://www.w3.org/2000/svg" xmlns:xlink="http://www.w3.org/1999/xlink">
	<desc>
			Created with Pixso.
	</desc>
	<defs>
		<clipPath id="clip7_361">
			<rect id="instagram" width="24.000000" height="24.000000" transform="translate(366.500000 35.000000)" fill="white" fill-opacity="0"/>
		</clipPath>
		<clipPath id="clip7_363">
			<rect id="twitter" width="24.000000" height="24.000000" transform="translate(400.500000 35.000000)" fill="white" fill-opacity="0"/>
		</clipPath>
		<clipPath id="clip7_365">
			<rect id="facebook" width="24.000000" height="24.000000" transform="translate(434.500000 35.000000)" fill="white" fill-opacity="0"/>
		</clipPath>
		<clipPath id="clip7_369">
			<rect id="linkedin" width="24.000000" height="24.000000" transform="translate(468.500000 35.000000)" fill="white" fill-opacity="0"/>
		</clipPath>
	</defs>
	<path id="USA Your address goes there" d="M15.7 21.59Q16.86 22.2 18.49 22.2Q20.66 22.2 21.93 21.16Q22.36 20.8 22.65 20.34Q23.2 19.48 23.2 18.27Q23.2 17.18 22.82 16.45Q22.49 15.79 21.97 15.35Q21.91 15.3 21.85 15.26Q21.83 15.24 21.81 15.23Q21.23 14.78 20.53 14.5Q19.82 14.2 19.08 13.95Q18.36 13.69 17.76 13.4Q17.16 13.09 16.78 12.66Q16.74 12.62 16.71 12.57Q16.41 12.16 16.41 11.54Q16.41 11.02 16.64 10.64Q16.8 10.37 17.07 10.17Q17.74 9.68 18.85 9.68Q19.78 9.68 20.49 10.04Q21.19 10.39 21.81 11.12L23.09 9.84Q23.07 9.81 23.04 9.78Q22.38 8.96 21.33 8.45Q20.26 7.91 18.89 7.91Q17.65 7.91 16.66 8.37Q15.92 8.7 15.41 9.26Q15.25 9.44 15.1 9.65Q15.06 9.72 15.01 9.79Q14.53 10.58 14.53 11.65Q14.53 12.71 14.9 13.42Q15.21 13.99 15.67 14.38Q15.77 14.47 15.88 14.54Q16.48 14.97 17.19 15.27Q17.92 15.55 18.63 15.8Q19.36 16.05 19.96 16.37Q20.57 16.67 20.93 17.16Q21.3 17.63 21.3 18.42Q21.3 18.9 21.1 19.27Q20.91 19.63 20.54 19.9Q19.8 20.44 18.56 20.44Q17.3 20.44 16.43 19.97Q15.57 19.5 14.91 18.58L13.63 19.86Q14.53 20.99 15.7 21.59ZM3.89 21.67Q4.98 22.2 6.34 22.2Q7.77 22.2 8.91 21.61Q9 21.56 9.09 21.51Q9.7 21.16 10.18 20.68Q10.65 20.21 10.99 19.62Q11.09 19.45 11.17 19.28Q11.7 18.2 11.7 16.87L11.7 8.11L9.79 8.11L9.79 16.83Q9.79 17.91 9.34 18.71Q9.07 19.21 8.67 19.56Q8.42 19.79 8.12 19.95Q7.36 20.39 6.34 20.39Q5.54 20.39 4.86 20.1Q4.71 20.04 4.56 19.95Q4.25 19.78 3.98 19.54Q3.59 19.19 3.31 18.71Q2.85 17.91 2.85 16.81L2.85 8.11L0.97 8.11L0.97 16.85Q0.97 18.18 1.49 19.25Q1.57 19.43 1.67 19.61Q2.03 20.23 2.53 20.71Q2.99 21.17 3.58 21.51Q3.73 21.59 3.89 21.67ZM29.95 8.11L24.28 22L26.28 22L27.53 18.86L33.69 18.86L34.93 22L36.98 22L31.32 8.11L29.95 8.11ZM33.04 17.21L30.62 11.13L28.19 17.21L33.04 17.21ZM64.2 52L66.02 52L66.02 37.71L64.2 37.71L64.2 43.81Q64.02 43.58 63.82 43.38Q63.43 43.01 62.94 42.75Q62.82 42.68 62.69 42.63Q61.93 42.29 61.02 42.29Q60.07 42.29 59.26 42.64Q58.95 42.77 58.65 42.96Q58.29 43.19 57.97 43.48Q57.4 44.01 57 44.74Q56.92 44.89 56.85 45.05Q56.39 46.05 56.39 47.25Q56.39 48.47 56.85 49.47Q56.92 49.63 57 49.78Q57.4 50.5 57.97 51.03Q58.29 51.32 58.65 51.55Q58.92 51.71 59.2 51.83Q60.03 52.2 61.02 52.2Q62.04 52.2 62.87 51.79Q62.91 51.77 62.96 51.75Q63.44 51.49 63.82 51.13Q64.02 50.93 64.2 50.69L64.2 52ZM75.84 52L77.66 52L77.66 37.71L75.84 37.71L75.84 43.81Q75.66 43.58 75.46 43.38Q75.07 43.01 74.58 42.75Q74.46 42.68 74.33 42.63Q73.57 42.29 72.66 42.29Q71.71 42.29 70.9 42.64Q70.59 42.77 70.29 42.96Q69.93 43.19 69.61 43.48Q69.04 44.01 68.64 44.74Q68.56 44.89 68.49 45.05Q68.03 46.05 68.03 47.25Q68.03 48.47 68.49 49.47Q68.56 49.63 68.64 49.78Q69.04 50.5 69.61 51.03Q69.93 51.32 70.29 51.55Q70.56 51.71 70.84 51.83Q71.67 52.2 72.66 52.2Q73.68 52.2 74.51 51.79Q74.55 51.77 74.6 51.75Q75.08 51.49 75.46 51.13Q75.66 50.93 75.84 50.69L75.84 52ZM173.63 37.71L173.63 52L175.44 52L175.44 46.45Q175.44 45.8 175.7 45.28Q175.73 45.23 175.75 45.18Q175.93 44.88 176.17 44.65Q176.37 44.45 176.63 44.3Q176.69 44.27 176.75 44.24Q177.27 43.98 177.92 43.98Q178.64 43.98 179.18 44.29Q179.45 44.44 179.67 44.68Q179.9 44.91 180.05 45.18Q180.36 45.73 180.36 46.45L180.36 52L182.15 52L182.15 46.1Q182.15 44.98 181.68 44.13L181.68 44.11Q181.39 43.61 180.99 43.23Q180.71 42.97 180.37 42.78Q180.3 42.74 180.24 42.7Q179.45 42.29 178.45 42.29Q177.58 42.29 176.84 42.62Q176.68 42.69 176.51 42.79Q176.02 43.07 175.66 43.46Q175.54 43.58 175.44 43.72L175.44 37.71L173.63 37.71ZM7.09 45.82L7.09 52L5.21 52L5.21 45.87L0.08 38.11L2.25 38.11L6.17 44.11L10.1 38.11L12.23 38.11L7.09 45.82ZM167.73 44.13L167.73 52L169.54 52L169.54 44.13L171.87 44.13L171.87 42.49L169.54 42.49L169.54 38.51L167.73 38.51L167.73 42.49L165.39 42.49L165.39 44.13L167.73 44.13ZM13.52 51.8Q14.43 52.2 15.51 52.2Q16.49 52.2 17.33 51.87Q17.69 51.73 18.02 51.54Q18.6 51.2 19.06 50.74Q19.49 50.3 19.82 49.75Q19.99 49.46 20.11 49.15Q20.48 48.26 20.48 47.21Q20.48 46.22 20.13 45.35Q20 45.02 19.82 44.71Q19.5 44.18 19.08 43.75Q18.62 43.29 18.02 42.95Q17.7 42.76 17.35 42.62Q16.5 42.29 15.51 42.29Q14.45 42.29 13.54 42.68Q13.26 42.8 12.99 42.96Q12.41 43.3 11.96 43.76Q11.53 44.19 11.21 44.72Q11.04 45.01 10.92 45.31Q10.55 46.19 10.55 47.21Q10.55 48.26 10.92 49.15Q11.04 49.46 11.21 49.75Q11.57 50.35 12.05 50.82Q12.47 51.23 12.99 51.54Q13.25 51.69 13.52 51.8ZM34.62 46.58L34.62 52L32.81 52L32.81 42.49L34.62 42.49L34.62 43.6Q34.69 43.49 34.78 43.38Q35.05 43.03 35.4 42.79Q36.13 42.29 37.19 42.29Q37.92 42.29 38.49 42.55Q39.07 42.8 39.58 43.38L38.39 44.59Q38.1 44.28 37.74 44.14Q37.37 44 36.9 44Q36.22 44 35.72 44.28Q35.47 44.43 35.25 44.64Q34.62 45.28 34.62 46.58ZM47.78 51.91Q48.53 52.2 49.4 52.2Q50.5 52.2 51.34 51.75Q51.81 51.5 52.18 51.14Q52.38 50.94 52.56 50.71L52.56 52L54.38 52L54.38 42.49L52.56 42.49L52.56 43.79Q52.38 43.56 52.18 43.37Q51.81 43 51.33 42.75Q51.29 42.73 51.25 42.71Q50.43 42.29 49.4 42.29Q48.47 42.29 47.67 42.62Q47.34 42.76 47.02 42.96Q46.62 43.21 46.29 43.53Q45.74 44.04 45.36 44.74Q45.28 44.89 45.21 45.05Q44.75 46.05 44.75 47.25Q44.75 48.47 45.21 49.47Q45.28 49.63 45.36 49.78Q45.73 50.44 46.24 50.94Q46.6 51.28 47.03 51.55Q47.39 51.77 47.78 51.91ZM82.08 46.58L82.08 52L80.27 52L80.27 42.49L82.08 42.49L82.08 43.6Q82.15 43.49 82.24 43.38Q82.51 43.03 82.86 42.79Q83.59 42.29 84.65 42.29Q85.38 42.29 85.95 42.55Q86.53 42.8 87.04 43.38L85.85 44.59Q85.56 44.28 85.2 44.14Q84.83 44 84.36 44Q83.68 44 83.18 44.28Q82.93 44.43 82.71 44.64Q82.08 45.28 82.08 46.58ZM90.35 51.8Q91.29 52.2 92.39 52.2Q93.28 52.2 94.08 51.93Q94.29 51.86 94.5 51.78Q95.1 51.52 95.59 51.13Q95.91 50.87 96.18 50.55L95.01 49.37Q94.75 49.68 94.44 49.9Q94.17 50.09 93.86 50.22Q93.19 50.5 92.39 50.5Q91.47 50.5 90.75 50.12Q90.72 50.1 90.69 50.09Q90.34 49.89 90.06 49.61Q89.76 49.31 89.56 48.93Q89.31 48.47 89.22 47.91L96.66 47.91Q96.71 47.62 96.73 47.39Q96.75 47.16 96.75 46.96Q96.75 45.7 96.25 44.69Q96.22 44.62 96.18 44.55Q95.86 43.94 95.38 43.49Q95.03 43.15 94.6 42.89Q94.49 42.83 94.38 42.77Q93.45 42.29 92.28 42.29Q91.24 42.29 90.35 42.66Q90.06 42.78 89.79 42.95Q89.27 43.25 88.85 43.66Q88.37 44.12 88.02 44.71Q87.89 44.95 87.78 45.2Q87.37 46.13 87.37 47.23Q87.37 48.38 87.8 49.34Q87.91 49.56 88.03 49.78Q88.35 50.31 88.76 50.73Q89.23 51.2 89.83 51.55Q90.09 51.69 90.35 51.8ZM89.22 46.41Q89.31 45.9 89.54 45.48Q89.74 45.08 90.05 44.78Q90.3 44.53 90.62 44.35Q90.63 44.35 90.64 44.34Q91.33 43.95 92.24 43.95Q93.12 43.95 93.74 44.32Q93.97 44.47 94.17 44.65Q94.49 44.95 94.69 45.36Q94.93 45.82 95 46.41L89.22 46.41ZM100.22 51.99Q100.94 52.2 101.74 52.2Q103.34 52.2 104.29 51.41Q104.65 51.11 104.88 50.72Q105.24 50.11 105.24 49.29Q105.24 48.42 104.87 47.88Q104.69 47.63 104.48 47.42Q104.23 47.19 103.91 47.02Q103.83 46.97 103.75 46.93Q103.25 46.67 102.69 46.51Q102.05 46.32 101.46 46.14Q100.88 45.96 100.52 45.7Q100.37 45.59 100.28 45.45Q100.15 45.24 100.15 44.95Q100.15 44.73 100.25 44.55Q100.35 44.35 100.56 44.21Q100.97 43.93 101.76 43.93Q102.49 43.93 103.08 44.22Q103.37 44.35 103.62 44.55Q103.87 44.75 104.08 45.01L105.24 43.86Q104.94 43.44 104.55 43.13Q104.21 42.86 103.81 42.68Q102.94 42.29 101.81 42.29Q100.75 42.29 100 42.63Q99.43 42.9 99.05 43.33Q98.93 43.46 98.84 43.61Q98.78 43.69 98.73 43.79Q98.42 44.36 98.42 45.1Q98.42 45.96 98.78 46.48Q98.92 46.67 99.08 46.83Q99.37 47.11 99.73 47.3Q100.32 47.6 100.96 47.79Q101.61 47.98 102.2 48.17Q102.78 48.36 103.14 48.65Q103.28 48.75 103.36 48.89Q103.51 49.12 103.51 49.46Q103.51 49.69 103.42 49.87Q103.31 50.1 103.05 50.27Q102.6 50.55 101.76 50.55Q100.92 50.55 100.23 50.25Q100.2 50.23 100.16 50.21Q99.53 49.9 99.04 49.29L97.87 50.46Q97.95 50.55 98.02 50.63Q98.41 51.06 98.91 51.38Q99 51.44 99.08 51.49Q99.61 51.8 100.22 51.99ZM108.76 51.99Q109.48 52.2 110.28 52.2Q111.88 52.2 112.83 51.41Q113.19 51.11 113.42 50.72Q113.78 50.11 113.78 49.29Q113.78 48.42 113.41 47.88Q113.23 47.63 113.02 47.42Q112.77 47.19 112.45 47.02Q112.37 46.97 112.29 46.93Q111.79 46.67 111.23 46.51Q110.59 46.32 110 46.14Q109.42 45.96 109.06 45.7Q108.91 45.59 108.82 45.45Q108.69 45.24 108.69 44.95Q108.69 44.73 108.79 44.55Q108.89 44.35 109.1 44.21Q109.51 43.93 110.3 43.93Q111.03 43.93 111.62 44.22Q111.91 44.35 112.16 44.55Q112.41 44.75 112.62 45.01L113.78 43.86Q113.48 43.44 113.09 43.13Q112.75 42.86 112.35 42.68Q111.48 42.29 110.35 42.29Q109.29 42.29 108.54 42.63Q107.97 42.9 107.59 43.33Q107.47 43.46 107.38 43.61Q107.32 43.69 107.27 43.79Q106.96 44.36 106.96 45.1Q106.96 45.96 107.32 46.48Q107.46 46.67 107.62 46.83Q107.91 47.11 108.27 47.3Q108.86 47.6 109.5 47.79Q110.15 47.98 110.74 48.17Q111.32 48.36 111.68 48.65Q111.82 48.75 111.9 48.89Q112.05 49.12 112.05 49.46Q112.05 49.69 111.96 49.87Q111.85 50.1 111.59 50.27Q111.14 50.55 110.3 50.55Q109.46 50.55 108.77 50.25Q108.74 50.23 108.7 50.21Q108.07 49.9 107.58 49.29L106.41 50.46Q106.49 50.55 106.56 50.63Q106.95 51.06 107.45 51.38Q107.54 51.44 107.62 51.49Q108.15 51.8 108.76 51.99ZM122.07 51.47Q122.9 51.83 123.89 51.83Q125 51.83 125.86 51.39Q126.37 51.13 126.76 50.74Q126.94 50.56 127.1 50.35L127.1 51.61Q127.1 52.5 126.7 53.14Q126.52 53.44 126.24 53.68Q126.18 53.75 126.1 53.8Q125.28 54.46 123.93 54.46Q122.83 54.46 122.03 54.07Q121.83 53.96 121.63 53.84Q121.08 53.48 120.66 52.94L119.49 54.11Q119.72 54.44 119.99 54.71Q120.54 55.27 121.3 55.63Q122.43 56.17 123.89 56.17Q125.37 56.17 126.5 55.59Q127.3 55.18 127.85 54.56Q128.08 54.29 128.26 53.99Q128.32 53.9 128.37 53.81Q128.89 52.86 128.89 51.61L128.89 42.49L127.1 42.49L127.1 43.76Q126.95 43.56 126.78 43.39Q126.39 43 125.88 42.74Q125.02 42.29 123.89 42.29Q122.93 42.29 122.11 42.64Q121.83 42.76 121.57 42.92Q121.13 43.19 120.77 43.54Q120.28 44.01 119.93 44.63Q119.86 44.75 119.8 44.88Q119.33 45.86 119.33 47.05Q119.33 48.22 119.77 49.18Q119.85 49.35 119.93 49.5Q120.31 50.18 120.85 50.68Q121.18 50.98 121.57 51.21Q121.81 51.36 122.07 51.47ZM133.88 51.8Q134.79 52.2 135.87 52.2Q136.85 52.2 137.69 51.87Q138.05 51.73 138.38 51.54Q138.96 51.2 139.42 50.74Q139.86 50.3 140.18 49.75Q140.35 49.46 140.47 49.15Q140.84 48.26 140.84 47.21Q140.84 46.22 140.49 45.35Q140.36 45.02 140.18 44.71Q139.86 44.18 139.44 43.75Q138.98 43.29 138.38 42.95Q138.06 42.76 137.71 42.62Q136.86 42.29 135.87 42.29Q134.81 42.29 133.9 42.68Q133.62 42.8 133.36 42.96Q132.78 43.3 132.32 43.76Q131.89 44.19 131.57 44.72Q131.4 45.01 131.28 45.31Q130.91 46.19 130.91 47.21Q130.91 48.26 131.28 49.15Q131.4 49.46 131.57 49.75Q131.93 50.35 132.41 50.82Q132.83 51.23 133.36 51.54Q133.61 51.69 133.88 51.8ZM145.21 51.8Q146.15 52.2 147.25 52.2Q148.14 52.2 148.94 51.93Q149.15 51.86 149.36 51.78Q149.96 51.52 150.45 51.13Q150.77 50.87 151.04 50.55L149.88 49.37Q149.62 49.68 149.3 49.9Q149.03 50.09 148.72 50.22Q148.05 50.5 147.25 50.5Q146.34 50.5 145.62 50.12Q145.58 50.1 145.55 50.09Q145.2 49.89 144.92 49.61Q144.62 49.31 144.42 48.93Q144.17 48.47 144.08 47.91L151.52 47.91Q151.57 47.62 151.59 47.39Q151.61 47.16 151.61 46.96Q151.61 45.7 151.11 44.69Q151.08 44.62 151.04 44.55Q150.72 43.94 150.24 43.49Q149.89 43.15 149.47 42.89Q149.35 42.83 149.24 42.77Q148.31 42.29 147.14 42.29Q146.1 42.29 145.21 42.66Q144.92 42.78 144.64 42.95Q144.13 43.25 143.71 43.66Q143.23 44.12 142.88 44.71Q142.75 44.95 142.64 45.2Q142.23 46.13 142.23 47.23Q142.23 48.38 142.67 49.34Q142.77 49.56 142.89 49.78Q143.21 50.31 143.63 50.73Q144.09 51.2 144.69 51.55Q144.95 51.69 145.21 51.8ZM144.08 46.41Q144.17 45.9 144.4 45.48Q144.61 45.08 144.91 44.78Q145.16 44.53 145.48 44.35Q145.49 44.35 145.5 44.34Q146.19 43.95 147.1 43.95Q147.98 43.95 148.6 44.32Q148.83 44.47 149.03 44.65Q149.35 44.95 149.55 45.36Q149.79 45.82 149.86 46.41L144.08 46.41ZM155.08 51.99Q155.8 52.2 156.6 52.2Q158.2 52.2 159.14 51.41Q159.51 51.11 159.74 50.72Q160.1 50.11 160.1 49.29Q160.1 48.42 159.73 47.88Q159.55 47.63 159.34 47.42Q159.09 47.19 158.77 47.02Q158.69 46.97 158.61 46.93Q158.11 46.67 157.55 46.51Q156.91 46.32 156.32 46.14Q155.74 45.96 155.38 45.7Q155.23 45.59 155.14 45.45Q155.01 45.24 155.01 44.95Q155.01 44.73 155.11 44.55Q155.21 44.35 155.42 44.21Q155.83 43.93 156.62 43.93Q157.35 43.93 157.94 44.22Q158.23 44.35 158.48 44.55Q158.73 44.75 158.94 45.01L160.1 43.86Q159.8 43.44 159.41 43.13Q159.07 42.86 158.67 42.68Q157.8 42.29 156.67 42.29Q155.61 42.29 154.86 42.63Q154.29 42.9 153.91 43.33Q153.79 43.46 153.7 43.61Q153.64 43.69 153.59 43.79Q153.28 44.36 153.28 45.1Q153.28 45.96 153.64 46.48Q153.78 46.67 153.94 46.83Q154.23 47.11 154.59 47.3Q155.17 47.6 155.82 47.79Q156.47 47.98 157.06 48.17Q157.64 48.36 158 48.65Q158.14 48.75 158.22 48.89Q158.37 49.12 158.37 49.46Q158.37 49.69 158.28 49.87Q158.17 50.1 157.91 50.27Q157.46 50.55 156.62 50.55Q155.78 50.55 155.09 50.25Q155.06 50.23 155.02 50.21Q154.39 49.9 153.9 49.29L152.73 50.46Q152.81 50.55 152.88 50.63Q153.27 51.06 153.77 51.38Q153.86 51.44 153.94 51.49Q154.47 51.8 155.08 51.99ZM186.95 51.8Q187.89 52.2 188.99 52.2Q189.88 52.2 190.68 51.93Q190.89 51.86 191.1 51.78Q191.7 51.52 192.19 51.13Q192.51 50.87 192.78 50.55L191.62 49.37Q191.36 49.68 191.04 49.9Q190.77 50.09 190.46 50.22Q189.79 50.5 188.99 50.5Q188.08 50.5 187.36 50.12Q187.32 50.1 187.29 50.09Q186.94 49.89 186.66 49.61Q186.36 49.31 186.16 48.93Q185.91 48.47 185.82 47.91L193.26 47.91Q193.31 47.62 193.33 47.39Q193.35 47.16 193.35 46.96Q193.35 45.7 192.85 44.69Q192.82 44.62 192.78 44.55Q192.46 43.94 191.98 43.49Q191.63 43.15 191.21 42.89Q191.09 42.83 190.98 42.77Q190.05 42.29 188.88 42.29Q187.84 42.29 186.95 42.66Q186.66 42.78 186.39 42.95Q185.87 43.25 185.45 43.66Q184.97 44.12 184.62 44.71Q184.49 44.95 184.38 45.2Q183.97 46.13 183.97 47.23Q183.97 48.38 184.41 49.34Q184.51 49.56 184.63 49.78Q184.95 50.31 185.37 50.73Q185.83 51.2 186.43 51.55Q186.69 51.69 186.95 51.8ZM185.82 46.41Q185.91 45.9 186.14 45.48Q186.35 45.08 186.65 44.78Q186.9 44.53 187.22 44.35Q187.23 44.35 187.24 44.34Q187.93 43.95 188.84 43.95Q189.72 43.95 190.34 44.32Q190.57 44.47 190.77 44.65Q191.09 44.95 191.29 45.36Q191.53 45.82 191.6 46.41L185.82 46.41ZM197.12 46.58L197.12 52L195.31 52L195.31 42.49L197.12 42.49L197.12 43.6Q197.19 43.49 197.28 43.38Q197.55 43.03 197.9 42.79Q198.63 42.29 199.69 42.29Q200.42 42.29 200.99 42.55Q201.57 42.8 202.08 43.38L200.89 44.59Q200.6 44.28 200.24 44.14Q199.87 44 199.4 44Q198.73 44 198.22 44.28Q197.97 44.43 197.76 44.64Q197.12 45.28 197.12 46.58ZM205.39 51.8Q206.33 52.2 207.43 52.2Q208.32 52.2 209.12 51.93Q209.33 51.86 209.54 51.78Q210.14 51.52 210.63 51.13Q210.95 50.87 211.22 50.55L210.06 49.37Q209.8 49.68 209.48 49.9Q209.21 50.09 208.9 50.22Q208.23 50.5 207.43 50.5Q206.52 50.5 205.8 50.12Q205.76 50.1 205.73 50.09Q205.38 49.89 205.1 49.61Q204.8 49.31 204.6 48.93Q204.35 48.47 204.26 47.91L211.7 47.91Q211.75 47.62 211.77 47.39Q211.79 47.16 211.79 46.96Q211.79 45.7 211.29 44.69Q211.26 44.62 211.22 44.55Q210.9 43.94 210.42 43.49Q210.07 43.15 209.65 42.89Q209.53 42.83 209.42 42.77Q208.49 42.29 207.32 42.29Q206.28 42.29 205.39 42.66Q205.1 42.78 204.83 42.95Q204.31 43.25 203.89 43.66Q203.41 44.12 203.06 44.71Q202.93 44.95 202.82 45.2Q202.41 46.13 202.41 47.23Q202.41 48.38 202.85 49.34Q202.95 49.56 203.07 49.78Q203.39 50.31 203.81 50.73Q204.27 51.2 204.87 51.55Q205.13 51.69 205.39 51.8ZM204.26 46.41Q204.35 45.9 204.58 45.48Q204.79 45.08 205.09 44.78Q205.34 44.53 205.66 44.35Q205.67 44.35 205.68 44.34Q206.37 43.95 207.28 43.95Q208.16 43.95 208.78 44.32Q209.02 44.47 209.21 44.65Q209.53 44.95 209.73 45.36Q209.97 45.82 210.04 46.41L204.26 46.41ZM24.48 51.8Q25.31 52.2 26.34 52.2Q27.5 52.2 28.39 51.7Q28.42 51.69 28.45 51.67Q28.84 51.43 29.17 51.12Q29.58 50.72 29.87 50.2Q30.39 49.26 30.39 48.02L30.39 42.49L28.6 42.49L28.6 47.94Q28.6 49.07 28.04 49.74Q28.02 49.76 28 49.79Q27.84 49.96 27.65 50.09Q27.12 50.46 26.34 50.46Q25.63 50.46 25.11 50.16Q24.93 50.05 24.77 49.91Q24.5 49.65 24.32 49.29Q24.06 48.71 24.06 47.94L24.06 42.49L22.25 42.49L22.25 48.02Q22.25 49.26 22.77 50.2Q23.04 50.68 23.41 51.05Q23.77 51.41 24.22 51.67Q24.35 51.74 24.48 51.8ZM51.2 50.12Q50.56 50.5 49.69 50.5Q48.96 50.5 48.35 50.21Q48.22 50.15 48.09 50.08Q47.78 49.89 47.52 49.63Q47.22 49.33 47 48.93Q46.61 48.2 46.61 47.23Q46.61 46.3 47 45.57Q47.24 45.13 47.58 44.8Q47.81 44.58 48.08 44.42Q48.19 44.35 48.3 44.3Q48.92 44 49.67 44Q50.49 44 51.13 44.34Q51.19 44.37 51.25 44.41Q51.54 44.58 51.76 44.8Q52.09 45.12 52.3 45.55Q52.67 46.28 52.67 47.25Q52.67 48.36 52.18 49.15Q52.04 49.38 51.85 49.59Q51.56 49.91 51.2 50.12ZM62.75 50.16Q62.12 50.5 61.31 50.5Q60.56 50.5 59.94 50.2Q59.83 50.14 59.72 50.08Q59.44 49.9 59.2 49.68Q58.87 49.36 58.64 48.93Q58.25 48.2 58.25 47.23Q58.25 46.3 58.64 45.57Q58.9 45.1 59.27 44.76Q59.47 44.57 59.71 44.42Q59.8 44.36 59.9 44.31Q60.52 44 61.3 44Q62.1 44 62.73 44.34Q62.8 44.38 62.86 44.42Q63.12 44.58 63.34 44.78Q63.68 45.11 63.92 45.56Q64.31 46.28 64.31 47.25Q64.31 48.2 63.93 48.93Q63.7 49.37 63.36 49.7Q63.14 49.91 62.88 50.08Q62.82 50.12 62.75 50.16ZM74.39 50.16Q73.76 50.5 72.95 50.5Q72.2 50.5 71.58 50.2Q71.47 50.14 71.36 50.08Q71.08 49.9 70.84 49.68Q70.51 49.36 70.28 48.93Q69.89 48.2 69.89 47.23Q69.89 46.3 70.28 45.57Q70.54 45.1 70.91 44.76Q71.11 44.57 71.35 44.42Q71.44 44.36 71.54 44.31Q72.16 44 72.94 44Q73.74 44 74.37 44.34Q74.44 44.38 74.5 44.42Q74.76 44.58 74.98 44.78Q75.32 45.11 75.56 45.56Q75.95 46.28 75.95 47.25Q75.95 48.2 75.57 48.93Q75.34 49.37 75 49.7Q74.78 49.91 74.52 50.08Q74.46 50.12 74.39 50.16ZM125.77 49.77Q125.11 50.13 124.26 50.13Q123.41 50.13 122.74 49.78Q122.7 49.76 122.66 49.74Q122.35 49.56 122.09 49.32Q121.79 49.03 121.58 48.66Q121.57 48.62 121.55 48.59Q121.19 47.91 121.19 47.05Q121.19 46.19 121.55 45.52Q121.57 45.49 121.58 45.47Q121.81 45.07 122.12 44.78Q122.36 44.55 122.65 44.39Q122.67 44.38 122.69 44.37Q123.36 44 124.24 44Q125.13 44 125.79 44.39Q126.08 44.55 126.31 44.78Q126.62 45.07 126.82 45.47Q127.2 46.16 127.2 47.07Q127.2 48 126.83 48.68Q126.65 49.03 126.39 49.3Q126.14 49.57 125.8 49.75Q125.79 49.76 125.77 49.77ZM16.87 50.17Q16.26 50.46 15.51 50.46Q14.78 50.46 14.17 50.18Q14.04 50.11 13.91 50.04Q13.61 49.86 13.37 49.62Q13.04 49.3 12.81 48.89Q12.8 48.87 12.79 48.84Q12.41 48.13 12.41 47.21Q12.41 46.37 12.75 45.7Q12.78 45.64 12.81 45.58Q13.04 45.17 13.37 44.85Q13.61 44.62 13.91 44.45Q14.02 44.38 14.13 44.33Q14.75 44.04 15.51 44.04Q16.31 44.04 16.94 44.36Q17.02 44.4 17.1 44.45Q17.37 44.6 17.59 44.81Q17.95 45.13 18.2 45.58Q18.25 45.66 18.3 45.75Q18.61 46.4 18.61 47.21Q18.61 48.13 18.24 48.84Q18.23 48.87 18.21 48.89Q17.99 49.29 17.68 49.6Q17.43 49.85 17.11 50.04Q16.99 50.11 16.87 50.17ZM137.23 50.17Q136.62 50.46 135.87 50.46Q135.14 50.46 134.53 50.18Q134.4 50.11 134.27 50.04Q133.97 49.86 133.73 49.62Q133.4 49.3 133.17 48.89Q133.16 48.87 133.15 48.84Q132.77 48.13 132.77 47.21Q132.77 46.37 133.11 45.7Q133.14 45.64 133.17 45.58Q133.4 45.17 133.73 44.85Q133.97 44.62 134.27 44.45Q134.38 44.38 134.49 44.33Q135.11 44.04 135.87 44.04Q136.67 44.04 137.31 44.36Q137.38 44.4 137.46 44.45Q137.73 44.6 137.95 44.81Q138.31 45.13 138.57 45.58Q138.61 45.66 138.66 45.75Q138.98 46.4 138.98 47.21Q138.98 48.13 138.6 48.84Q138.59 48.87 138.57 48.89Q138.35 49.29 138.04 49.6Q137.79 49.85 137.47 50.04Q137.35 50.11 137.23 50.17Z" fill="#FFDBB8" fill-opacity="1.000000" fill-rule="evenodd"/>
	<path id="+000000000" d="M15.43 89.97Q16.15 90.2 16.94 90.2Q17.7 90.2 18.41 89.98Q19.11 89.76 19.74 89.33Q19.77 89.31 19.8 89.29Q21.03 88.42 21.76 86.85Q22.51 85.23 22.51 83.06Q22.51 80.85 21.76 79.26Q21.05 77.74 19.87 76.88Q19.8 76.83 19.73 76.79Q19.17 76.4 18.55 76.19Q17.76 75.91 16.87 75.91Q16.14 75.91 15.46 76.11Q14.72 76.33 14.06 76.79Q14 76.83 13.94 76.87Q12.74 77.73 12.02 79.26Q11.28 80.85 11.28 83.04Q11.28 85.21 12.03 86.83Q12.76 88.37 13.97 89.24Q14.03 89.28 14.09 89.32Q14.72 89.75 15.43 89.97ZM28.55 89.97Q29.27 90.2 30.06 90.2Q30.82 90.2 31.53 89.98Q32.23 89.76 32.86 89.33Q32.89 89.31 32.92 89.29Q34.15 88.42 34.88 86.85Q35.63 85.23 35.63 83.06Q35.63 80.85 34.88 79.26Q34.17 77.74 32.99 76.88Q32.92 76.83 32.85 76.79Q32.29 76.4 31.67 76.19Q30.88 75.91 29.99 75.91Q29.26 75.91 28.58 76.11Q27.84 76.33 27.18 76.79Q27.12 76.83 27.06 76.87Q25.86 77.73 25.14 79.26Q24.4 80.85 24.4 83.04Q24.4 85.21 25.15 86.83Q25.88 88.37 27.09 89.24Q27.15 89.28 27.21 89.32Q27.84 89.75 28.55 89.97ZM41.67 89.97Q42.39 90.2 43.18 90.2Q43.94 90.2 44.65 89.98Q45.35 89.76 45.98 89.33Q46.01 89.31 46.04 89.29Q47.27 88.42 48 86.85Q48.75 85.23 48.75 83.06Q48.75 80.85 48 79.26Q47.29 77.74 46.11 76.88Q46.04 76.83 45.97 76.79Q45.41 76.4 44.79 76.19Q44 75.91 43.11 75.91Q42.38 75.91 41.7 76.11Q40.96 76.33 40.3 76.79Q40.24 76.83 40.18 76.87Q38.98 77.73 38.26 79.26Q37.52 80.85 37.52 83.04Q37.52 85.21 38.27 86.83Q39 88.37 40.21 89.24Q40.27 89.28 40.33 89.32Q40.96 89.75 41.67 89.97ZM54.79 89.97Q55.51 90.2 56.3 90.2Q57.06 90.2 57.77 89.98Q58.47 89.76 59.1 89.33Q59.13 89.31 59.16 89.29Q60.39 88.42 61.12 86.85Q61.87 85.23 61.87 83.06Q61.87 80.85 61.12 79.26Q60.41 77.74 59.23 76.88Q59.16 76.83 59.09 76.79Q58.53 76.4 57.91 76.19Q57.12 75.91 56.23 75.91Q55.5 75.91 54.82 76.11Q54.08 76.33 53.42 76.79Q53.36 76.83 53.3 76.87Q52.1 77.73 51.38 79.26Q50.64 80.85 50.64 83.04Q50.64 85.21 51.39 86.83Q52.12 88.37 53.33 89.24Q53.39 89.28 53.45 89.32Q54.08 89.75 54.79 89.97ZM67.91 89.97Q68.63 90.2 69.42 90.2Q70.18 90.2 70.89 89.98Q71.59 89.76 72.22 89.33Q72.25 89.31 72.28 89.29Q73.51 88.42 74.24 86.85Q74.99 85.23 74.99 83.06Q74.99 80.85 74.24 79.26Q73.53 77.74 72.35 76.88Q72.28 76.83 72.21 76.79Q71.65 76.4 71.03 76.19Q70.24 75.91 69.35 75.91Q68.62 75.91 67.94 76.11Q67.2 76.33 66.54 76.79Q66.48 76.83 66.42 76.87Q65.22 77.73 64.5 79.26Q63.76 80.85 63.76 83.04Q63.76 85.21 64.51 86.83Q65.24 88.37 66.45 89.24Q66.51 89.28 66.57 89.32Q67.2 89.75 67.91 89.97ZM81.03 89.97Q81.75 90.2 82.54 90.2Q83.3 90.2 84.01 89.98Q84.71 89.76 85.34 89.33Q85.37 89.31 85.4 89.29Q86.63 88.42 87.36 86.85Q88.11 85.23 88.11 83.06Q88.11 80.85 87.36 79.26Q86.65 77.74 85.47 76.88Q85.4 76.83 85.33 76.79Q84.77 76.4 84.15 76.19Q83.36 75.91 82.47 75.91Q81.74 75.91 81.06 76.11Q80.32 76.33 79.66 76.79Q79.6 76.83 79.54 76.87Q78.34 77.73 77.62 79.26Q76.88 80.85 76.88 83.04Q76.88 85.21 77.63 86.83Q78.36 88.37 79.57 89.24Q79.63 89.28 79.69 89.32Q80.32 89.75 81.03 89.97ZM94.15 89.97Q94.87 90.2 95.66 90.2Q96.42 90.2 97.13 89.98Q97.83 89.76 98.46 89.33Q98.49 89.31 98.52 89.29Q99.75 88.42 100.48 86.85Q101.23 85.23 101.23 83.06Q101.23 80.85 100.48 79.26Q99.77 77.74 98.59 76.88Q98.52 76.83 98.45 76.79Q97.89 76.4 97.27 76.19Q96.48 75.91 95.59 75.91Q94.86 75.91 94.18 76.11Q93.44 76.33 92.78 76.79Q92.72 76.83 92.66 76.87Q91.46 77.73 90.74 79.26Q90 80.85 90 83.04Q90 85.21 90.75 86.83Q91.48 88.37 92.69 89.24Q92.75 89.28 92.81 89.32Q93.44 89.75 94.15 89.97ZM107.27 89.97Q107.99 90.2 108.78 90.2Q109.54 90.2 110.25 89.98Q110.95 89.76 111.58 89.33Q111.61 89.31 111.64 89.29Q112.87 88.42 113.6 86.85Q114.35 85.23 114.35 83.06Q114.35 80.85 113.6 79.26Q112.89 77.74 111.71 76.88Q111.64 76.83 111.57 76.79Q111.01 76.4 110.39 76.19Q109.6 75.91 108.71 75.91Q107.98 75.91 107.3 76.11Q106.56 76.33 105.9 76.79Q105.84 76.83 105.78 76.87Q104.58 77.73 103.86 79.26Q103.12 80.85 103.12 83.04Q103.12 85.21 103.87 86.83Q104.6 88.37 105.81 89.24Q105.87 89.28 105.93 89.32Q106.56 89.75 107.27 89.97ZM120.39 89.97Q121.11 90.2 121.9 90.2Q122.66 90.2 123.37 89.98Q124.07 89.76 124.7 89.33Q124.73 89.31 124.76 89.29Q125.99 88.42 126.72 86.85Q127.47 85.23 127.47 83.06Q127.47 80.85 126.72 79.26Q126.01 77.74 124.83 76.88Q124.76 76.83 124.69 76.79Q124.13 76.4 123.51 76.19Q122.72 75.91 121.83 75.91Q121.1 75.91 120.42 76.11Q119.68 76.33 119.02 76.79Q118.96 76.83 118.9 76.87Q117.7 77.73 116.98 79.26Q116.24 80.85 116.24 83.04Q116.24 85.21 116.99 86.83Q117.72 88.37 118.93 89.24Q118.99 89.28 119.05 89.32Q119.68 89.75 120.39 89.97ZM18.27 88.13Q17.65 88.41 16.89 88.41Q16.17 88.41 15.56 88.15Q15.24 88.02 14.95 87.81Q14.11 87.2 13.65 86Q13.18 84.79 13.18 83.04Q13.18 81.27 13.65 80.09Q14.11 78.9 14.95 78.29Q15.29 78.04 15.66 77.9Q16.22 77.68 16.87 77.68Q17.6 77.68 18.21 77.94Q18.53 78.08 18.82 78.29Q19.66 78.9 20.13 80.09Q20.61 81.27 20.61 83.04Q20.61 84.79 20.13 86Q19.66 87.2 18.83 87.81Q18.56 88 18.27 88.13ZM31.39 88.13Q30.77 88.41 30.01 88.41Q29.29 88.41 28.68 88.15Q28.36 88.02 28.07 87.81Q27.23 87.2 26.77 86Q26.3 84.79 26.3 83.04Q26.3 81.27 26.77 80.09Q27.23 78.9 28.07 78.29Q28.41 78.04 28.78 77.9Q29.34 77.68 29.99 77.68Q30.72 77.68 31.33 77.94Q31.65 78.08 31.94 78.29Q32.78 78.9 33.25 80.09Q33.73 81.27 33.73 83.04Q33.73 84.79 33.25 86Q32.78 87.2 31.95 87.81Q31.68 88 31.39 88.13ZM44.51 88.13Q43.89 88.41 43.13 88.41Q42.41 88.41 41.8 88.15Q41.48 88.02 41.19 87.81Q40.35 87.2 39.89 86Q39.42 84.79 39.42 83.04Q39.42 81.27 39.89 80.09Q40.35 78.9 41.19 78.29Q41.53 78.04 41.9 77.9Q42.46 77.68 43.11 77.68Q43.84 77.68 44.45 77.94Q44.77 78.08 45.06 78.29Q45.9 78.9 46.37 80.09Q46.85 81.27 46.85 83.04Q46.85 84.79 46.37 86Q45.9 87.2 45.07 87.81Q44.8 88 44.51 88.13ZM57.63 88.13Q57.01 88.41 56.25 88.41Q55.53 88.41 54.92 88.15Q54.6 88.02 54.31 87.81Q53.47 87.2 53.01 86Q52.54 84.79 52.54 83.04Q52.54 81.27 53.01 80.09Q53.47 78.9 54.31 78.29Q54.65 78.04 55.02 77.9Q55.58 77.68 56.23 77.68Q56.96 77.68 57.57 77.94Q57.89 78.08 58.18 78.29Q59.02 78.9 59.49 80.09Q59.97 81.27 59.97 83.04Q59.97 84.79 59.49 86Q59.02 87.2 58.19 87.81Q57.92 88 57.63 88.13ZM70.75 88.13Q70.13 88.41 69.37 88.41Q68.65 88.41 68.04 88.15Q67.72 88.02 67.43 87.81Q66.59 87.2 66.13 86Q65.66 84.79 65.66 83.04Q65.66 81.27 66.13 80.09Q66.59 78.9 67.43 78.29Q67.77 78.04 68.14 77.9Q68.7 77.68 69.35 77.68Q70.08 77.68 70.69 77.94Q71.01 78.08 71.3 78.29Q72.14 78.9 72.61 80.09Q73.09 81.27 73.09 83.04Q73.09 84.79 72.61 86Q72.14 87.2 71.31 87.81Q71.04 88 70.75 88.13ZM83.87 88.13Q83.25 88.41 82.49 88.41Q81.77 88.41 81.16 88.15Q80.84 88.02 80.55 87.81Q79.71 87.2 79.25 86Q78.78 84.79 78.78 83.04Q78.78 81.27 79.25 80.09Q79.71 78.9 80.55 78.29Q80.89 78.04 81.26 77.9Q81.82 77.68 82.47 77.68Q83.2 77.68 83.81 77.94Q84.13 78.08 84.42 78.29Q85.26 78.9 85.73 80.09Q86.21 81.27 86.21 83.04Q86.21 84.79 85.73 86Q85.26 87.2 84.43 87.81Q84.16 88 83.87 88.13ZM96.99 88.13Q96.37 88.41 95.61 88.41Q94.89 88.41 94.28 88.15Q93.96 88.02 93.67 87.81Q92.83 87.2 92.37 86Q91.9 84.79 91.9 83.04Q91.9 81.27 92.37 80.09Q92.83 78.9 93.67 78.29Q94.01 78.04 94.38 77.9Q94.94 77.68 95.59 77.68Q96.32 77.68 96.93 77.94Q97.25 78.08 97.54 78.29Q98.38 78.9 98.85 80.09Q99.33 81.27 99.33 83.04Q99.33 84.79 98.85 86Q98.38 87.2 97.55 87.81Q97.28 88 96.99 88.13ZM110.11 88.13Q109.49 88.41 108.73 88.41Q108.01 88.41 107.4 88.15Q107.08 88.02 106.79 87.81Q105.95 87.2 105.49 86Q105.02 84.79 105.02 83.04Q105.02 81.27 105.49 80.09Q105.95 78.9 106.79 78.29Q107.13 78.04 107.5 77.9Q108.07 77.68 108.71 77.68Q109.44 77.68 110.05 77.94Q110.37 78.08 110.66 78.29Q111.5 78.9 111.98 80.09Q112.45 81.27 112.45 83.04Q112.45 84.79 111.98 86Q111.5 87.2 110.67 87.81Q110.4 88 110.11 88.13ZM123.23 88.13Q122.61 88.41 121.85 88.41Q121.13 88.41 120.52 88.15Q120.2 88.02 119.91 87.81Q119.07 87.2 118.61 86Q118.14 84.79 118.14 83.04Q118.14 81.27 118.61 80.09Q119.07 78.9 119.91 78.29Q120.25 78.04 120.62 77.9Q121.19 77.68 121.83 77.68Q122.56 77.68 123.17 77.94Q123.49 78.08 123.78 78.29Q124.62 78.9 125.1 80.09Q125.57 81.27 125.57 83.04Q125.57 84.79 125.1 86Q124.62 87.2 123.79 87.81Q123.52 88 123.23 88.13ZM5.75 78.86L4.09 78.86L4.09 82.5L0.68 82.5L0.68 84.12L4.09 84.12L4.09 87.75L5.75 87.75L5.75 84.12L9.15 84.12L9.15 82.5L5.75 82.5L5.75 78.86Z" fill="#FFDBB8" fill-opacity="1.000000" fill-rule="evenodd"/>
	<path id="COOK’s Socials" d="M371.26 19.73Q372.36 20.18 373.64 20.18Q375.1 20.18 376.26 19.67Q376.94 19.38 377.51 18.95Q377.92 18.64 378.29 18.27L377.12 17.12Q377.02 17.22 376.92 17.32Q376.38 17.84 375.65 18.17Q374.79 18.55 373.62 18.55Q372.63 18.55 371.8 18.21Q371.36 18.02 370.97 17.74Q370.65 17.51 370.36 17.21Q370.28 17.12 370.2 17.03Q369.71 16.44 369.42 15.68Q369.09 14.79 369.09 13.75Q369.09 12.7 369.42 11.83Q369.71 11.05 370.22 10.45Q370.29 10.37 370.36 10.3Q370.66 9.98 371.01 9.74Q371.38 9.48 371.8 9.29Q372.63 8.94 373.62 8.94Q374.72 8.94 375.57 9.32Q376.22 9.61 376.72 10.06Q376.88 10.2 377.02 10.37L378.19 9.19Q377.8 8.8 377.36 8.48Q376.83 8.1 376.22 7.83Q375.1 7.32 373.62 7.32Q372.32 7.32 371.22 7.78Q371.17 7.8 371.13 7.82Q370.43 8.12 369.83 8.58Q369.46 8.85 369.13 9.19Q368.89 9.43 368.68 9.7Q368.15 10.39 367.81 11.23Q367.81 11.23 367.8 11.24Q367.34 12.4 367.34 13.75Q367.34 14.93 367.71 15.99Q367.76 16.12 367.81 16.25Q368.13 17.04 368.62 17.7Q368.86 18.02 369.13 18.3Q369.46 18.64 369.82 18.92Q370.42 19.37 371.14 19.68Q371.2 19.71 371.26 19.73ZM383.35 19.8Q384.38 20.18 385.54 20.18Q386.63 20.18 387.6 19.84Q387.8 19.77 388 19.68Q388.66 19.39 389.23 18.98Q389.64 18.67 389.99 18.3Q390.26 18.03 390.48 17.73Q391 17.06 391.33 16.25Q391.42 16.04 391.5 15.82Q391.82 14.84 391.82 13.75Q391.82 12.51 391.41 11.42Q391.37 11.32 391.33 11.23Q391.01 10.45 390.52 9.79Q390.27 9.47 389.99 9.18Q389.58 8.76 389.11 8.44Q388.58 8.07 387.98 7.81Q387.89 7.77 387.79 7.73Q386.73 7.32 385.5 7.32Q384.28 7.32 383.21 7.73Q383.12 7.77 383.03 7.81Q382.39 8.08 381.84 8.48Q381.41 8.79 381.03 9.18Q380.75 9.47 380.51 9.78Q380.02 10.44 379.7 11.22Q379.7 11.22 379.69 11.23Q379.22 12.38 379.22 13.73Q379.22 14.88 379.57 15.9Q379.63 16.07 379.7 16.23Q380 16.97 380.45 17.6Q380.72 17.96 381.04 18.29Q381.42 18.69 381.86 19.01Q382.41 19.41 383.06 19.68Q383.2 19.75 383.35 19.8ZM397.75 19.8Q398.78 20.18 399.94 20.18Q401.03 20.18 402 19.84Q402.2 19.77 402.4 19.68Q403.06 19.39 403.63 18.98Q404.04 18.67 404.39 18.3Q404.66 18.03 404.88 17.73Q405.4 17.06 405.73 16.25Q405.82 16.04 405.9 15.82Q406.22 14.84 406.22 13.75Q406.22 12.51 405.81 11.42Q405.77 11.32 405.73 11.23Q405.41 10.45 404.92 9.79Q404.67 9.47 404.39 9.18Q403.98 8.76 403.51 8.44Q402.98 8.07 402.38 7.81Q402.29 7.77 402.19 7.73Q401.13 7.32 399.9 7.32Q398.68 7.32 397.61 7.73Q397.52 7.77 397.43 7.81Q396.79 8.08 396.24 8.48Q395.81 8.79 395.43 9.18Q395.15 9.47 394.91 9.78Q394.42 10.44 394.1 11.22L394.09 11.23Q393.62 12.38 393.62 13.73Q393.62 14.88 393.97 15.9Q394.03 16.07 394.1 16.23Q394.4 16.97 394.85 17.6Q395.12 17.96 395.44 18.29Q395.82 18.69 396.26 19.01Q396.81 19.41 397.46 19.68Q397.6 19.75 397.75 19.8ZM420.63 9.63L419.67 11.48L420.61 11.98L421.79 9.75Q422.02 9.3 422.1 9.03Q422.19 8.75 422.19 8.55Q422.19 8.3 422.1 8.09Q422.01 7.87 421.83 7.68Q421.59 7.45 421.31 7.36Q421.16 7.32 421 7.32Q420.75 7.32 420.53 7.41Q420.32 7.5 420.14 7.68Q419.97 7.86 419.88 8.07Q419.79 8.29 419.79 8.55Q419.79 8.81 419.89 9.03Q419.97 9.19 420.11 9.33Q420.35 9.57 420.63 9.63ZM424.96 19.63Q426.01 20.18 427.48 20.18Q429.42 20.18 430.57 19.24Q430.96 18.92 431.22 18.51Q431.71 17.73 431.71 16.65Q431.71 15.66 431.38 15Q431.07 14.41 430.6 14.01Q430.55 13.97 430.5 13.93Q430.48 13.92 430.47 13.9Q429.94 13.5 429.31 13.25Q428.67 12.98 428.01 12.75Q427.35 12.52 426.81 12.26Q426.27 11.98 425.94 11.6Q425.9 11.56 425.87 11.51Q425.61 11.14 425.61 10.58Q425.61 10.12 425.81 9.78Q425.95 9.53 426.2 9.35Q426.8 8.91 427.8 8.91Q428.63 8.91 429.27 9.23Q429.91 9.55 430.47 10.2L431.62 9.05Q431.6 9.03 431.57 9Q430.97 8.26 430.04 7.8Q429.06 7.32 427.84 7.32Q426.72 7.32 425.83 7.73Q425.16 8.03 424.71 8.53Q424.56 8.7 424.43 8.88Q424.38 8.95 424.34 9.01Q423.91 9.72 423.91 10.69Q423.91 11.64 424.25 12.27Q424.52 12.79 424.93 13.14Q425.03 13.22 425.12 13.29Q425.66 13.68 426.31 13.94Q426.96 14.2 427.61 14.42Q428.26 14.65 428.8 14.93Q429.35 15.21 429.68 15.64Q430 16.07 430 16.77Q430 17.21 429.82 17.55Q429.65 17.87 429.32 18.11Q428.65 18.59 427.53 18.59Q426.4 18.59 425.62 18.17Q424.85 17.75 424.26 16.92L423.11 18.07Q423.91 19.09 424.96 19.63ZM438.69 19.63Q439.74 20.18 441.21 20.18Q443.16 20.18 444.3 19.24Q444.7 18.92 444.95 18.51Q445.44 17.73 445.44 16.65Q445.44 15.66 445.11 15Q444.81 14.41 444.34 14.01Q444.29 13.97 444.24 13.93Q444.22 13.92 444.2 13.9Q443.68 13.5 443.05 13.25Q442.4 12.98 441.74 12.75Q441.09 12.52 440.55 12.26Q440.01 11.98 439.67 11.6Q439.64 11.56 439.61 11.51Q439.34 11.14 439.34 10.58Q439.34 10.12 439.54 9.78Q439.69 9.53 439.93 9.35Q440.53 8.91 441.54 8.91Q442.37 8.91 443 9.23Q443.64 9.55 444.2 10.2L445.35 9.05Q445.33 9.03 445.31 9Q444.71 8.26 443.77 7.8Q442.8 7.32 441.57 7.32Q440.46 7.32 439.56 7.73Q438.9 8.03 438.44 8.53Q438.29 8.7 438.16 8.88Q438.12 8.95 438.08 9.01Q437.65 9.72 437.65 10.69Q437.65 11.64 437.98 12.27Q438.26 12.79 438.67 13.14Q438.76 13.22 438.86 13.29Q439.4 13.68 440.04 13.94Q440.69 14.2 441.34 14.42Q441.99 14.65 442.53 14.93Q443.08 15.21 443.41 15.64Q443.73 16.07 443.73 16.77Q443.73 17.21 443.56 17.55Q443.39 17.87 443.06 18.11Q442.39 18.59 441.27 18.59Q440.14 18.59 439.36 18.17Q438.58 17.75 437.99 16.92L436.84 18.07Q437.65 19.09 438.69 19.63ZM451.28 19.8Q452.31 20.18 453.47 20.18Q454.56 20.18 455.53 19.84Q455.73 19.77 455.93 19.68Q456.59 19.39 457.16 18.98Q457.57 18.67 457.93 18.3Q458.19 18.03 458.42 17.73Q458.93 17.06 459.27 16.25Q459.36 16.04 459.43 15.82Q459.75 14.84 459.75 13.75Q459.75 12.51 459.34 11.42Q459.31 11.32 459.27 11.23Q458.94 10.45 458.45 9.79Q458.2 9.47 457.92 9.18Q457.51 8.76 457.04 8.44Q456.51 8.07 455.91 7.81Q455.82 7.77 455.72 7.73Q454.66 7.32 453.44 7.32Q452.21 7.32 451.15 7.73Q451.05 7.77 450.96 7.81Q450.32 8.08 449.77 8.48Q449.34 8.79 448.96 9.18Q448.68 9.47 448.45 9.78Q447.95 10.44 447.63 11.22L447.63 11.23Q447.16 12.38 447.16 13.73Q447.16 14.88 447.51 15.9Q447.56 16.07 447.63 16.23Q447.93 16.97 448.39 17.6Q448.65 17.96 448.97 18.29Q449.35 18.69 449.79 19.01Q450.35 19.41 450.99 19.68Q451.13 19.75 451.28 19.8ZM465.47 19.73Q466.57 20.18 467.85 20.18Q469.31 20.18 470.47 19.67Q471.15 19.38 471.72 18.95Q472.14 18.64 472.5 18.27L471.33 17.12Q471.23 17.22 471.13 17.32Q470.59 17.84 469.87 18.17Q469 18.55 467.84 18.55Q466.85 18.55 466.02 18.21Q465.57 18.02 465.19 17.74Q464.86 17.51 464.57 17.21Q464.49 17.12 464.42 17.03Q463.92 16.44 463.63 15.68Q463.3 14.79 463.3 13.75Q463.3 12.7 463.63 11.83Q463.92 11.05 464.43 10.45Q464.5 10.37 464.57 10.3Q464.87 9.98 465.22 9.74Q465.59 9.48 466.02 9.29Q466.85 8.94 467.84 8.94Q468.93 8.94 469.79 9.32Q470.44 9.61 470.93 10.06Q471.09 10.2 471.24 10.37L472.41 9.19Q472.01 8.8 471.57 8.48Q471.04 8.1 470.43 7.83Q469.31 7.32 467.84 7.32Q466.54 7.32 465.43 7.78Q465.39 7.8 465.34 7.82Q464.64 8.12 464.04 8.58Q463.67 8.85 463.34 9.19Q463.11 9.43 462.9 9.7Q462.36 10.39 462.02 11.23L462.02 11.24Q461.56 12.4 461.56 13.75Q461.56 14.93 461.92 15.99Q461.97 16.12 462.02 16.25Q462.34 17.04 462.83 17.7Q463.07 18.02 463.34 18.3Q463.67 18.64 464.03 18.92Q464.64 19.37 465.35 19.68Q465.41 19.71 465.47 19.73ZM501.91 19.63Q502.96 20.18 504.43 20.18Q506.37 20.18 507.52 19.24Q507.91 18.92 508.17 18.51Q508.66 17.73 508.66 16.65Q508.66 15.66 508.33 15Q508.02 14.41 507.55 14.01Q507.5 13.97 507.45 13.93Q507.43 13.92 507.42 13.9Q506.89 13.5 506.26 13.25Q505.62 12.98 504.96 12.75Q504.3 12.52 503.76 12.26Q503.22 11.98 502.89 11.6Q502.85 11.56 502.82 11.51Q502.56 11.14 502.56 10.58Q502.56 10.12 502.76 9.78Q502.9 9.53 503.15 9.35Q503.75 8.91 504.75 8.91Q505.58 8.91 506.22 9.23Q506.86 9.55 507.42 10.2L508.57 9.05Q508.55 9.03 508.52 9Q507.92 8.26 506.99 7.8Q506.01 7.32 504.79 7.32Q503.67 7.32 502.78 7.73Q502.11 8.03 501.66 8.53Q501.51 8.7 501.38 8.88Q501.33 8.95 501.29 9.01Q500.86 9.72 500.86 10.69Q500.86 11.64 501.2 12.27Q501.47 12.79 501.88 13.14Q501.98 13.22 502.07 13.29Q502.61 13.68 503.26 13.94Q503.91 14.2 504.56 14.42Q505.21 14.65 505.75 14.93Q506.3 15.21 506.63 15.64Q506.95 16.07 506.95 16.77Q506.95 17.21 506.77 17.55Q506.6 17.87 506.27 18.11Q505.6 18.59 504.48 18.59Q503.35 18.59 502.57 18.17Q501.8 17.75 501.21 16.92L500.06 18.07Q500.86 19.09 501.91 19.63ZM408.54 7.5L408.54 20L410.24 20L410.24 13.76L416.27 20L418.52 20L412.15 13.46L418.34 7.5L416.14 7.5L410.24 13.21L410.24 7.5L408.54 7.5ZM474.57 7.5L474.57 20L476.26 20L476.26 7.5L474.57 7.5ZM483.4 7.5L478.29 20L480.1 20L481.23 17.17L486.77 17.17L487.89 20L489.72 20L484.63 7.5L483.4 7.5ZM486.18 15.69L484.01 10.22L481.82 15.69L486.18 15.69ZM491.6 7.5L491.6 20L499.44 20L499.44 18.45L493.29 18.45L493.29 7.5L491.6 7.5ZM387.68 18.04Q386.73 18.55 385.5 18.55Q384.54 18.55 383.72 18.21Q383.7 18.2 383.68 18.19Q383.09 17.94 382.61 17.55Q382.41 17.38 382.23 17.2Q381.63 16.56 381.3 15.67Q380.97 14.77 380.97 13.73Q380.97 12.33 381.55 11.25Q381.92 10.57 382.46 10.07Q382.78 9.78 383.15 9.56Q383.28 9.48 383.42 9.41Q384.34 8.94 385.5 8.94Q386.51 8.94 387.34 9.29Q387.8 9.49 388.2 9.78Q388.51 10.01 388.78 10.3Q388.89 10.41 388.99 10.53Q389.45 11.1 389.73 11.82Q390.07 12.69 390.07 13.73Q390.07 15.1 389.51 16.17Q389.5 16.2 389.48 16.22Q389.1 16.93 388.54 17.43Q388.23 17.71 387.87 17.93Q387.78 17.99 387.68 18.04ZM402.08 18.04Q401.13 18.55 399.9 18.55Q398.94 18.55 398.12 18.21Q398.1 18.2 398.08 18.19Q397.49 17.94 397.01 17.55Q396.81 17.38 396.63 17.2Q396.03 16.56 395.7 15.67Q395.37 14.77 395.37 13.73Q395.37 12.33 395.95 11.25Q396.32 10.57 396.86 10.07Q397.18 9.78 397.55 9.56Q397.68 9.48 397.82 9.41Q398.74 8.94 399.9 8.94Q400.91 8.94 401.74 9.29Q402.2 9.49 402.6 9.78Q402.91 10.01 403.18 10.3Q403.29 10.41 403.39 10.53Q403.85 11.1 404.13 11.82Q404.47 12.69 404.47 13.73Q404.47 15.1 403.91 16.17Q403.9 16.2 403.88 16.22Q403.5 16.93 402.94 17.43Q402.63 17.71 402.27 17.93Q402.18 17.99 402.08 18.04ZM455.61 18.04Q454.66 18.55 453.44 18.55Q452.48 18.55 451.66 18.21Q451.63 18.2 451.61 18.19Q451.02 17.94 450.54 17.55Q450.34 17.38 450.17 17.2Q449.56 16.56 449.23 15.67Q448.9 14.77 448.9 13.73Q448.9 12.33 449.48 11.25Q449.85 10.57 450.39 10.07Q450.71 9.78 451.08 9.56Q451.21 9.48 451.35 9.41Q452.27 8.94 453.44 8.94Q454.44 8.94 455.27 9.29Q455.74 9.49 456.13 9.78Q456.44 10.01 456.71 10.3Q456.82 10.41 456.92 10.53Q457.38 11.1 457.66 11.82Q458.01 12.69 458.01 13.73Q458.01 15.1 457.44 16.17Q457.43 16.2 457.41 16.22Q457.03 16.93 456.47 17.43Q456.16 17.71 455.8 17.93Q455.71 17.99 455.61 18.04Z" fill="#FFFFFF" fill-opacity="1.000000" fill-rule="evenodd"/>
	<rect id="instagram" width="24.000000" height="24.000000" transform="translate(366.500000 35.000000)" fill="#FFFFFF" fill-opacity="0"/>
	<g clip-path="url(#clip7_361)">
		<path id="Vector" d="M383.5 37C386.26 37 388.5 39.23 388.5 42L388.5 52C388.5 54.76 386.26 57 383.5 57L373.5 57C370.73 57 368.5 54.76 368.5 52L368.5 42C368.5 39.23 370.73 37 373.5 37L383.5 37Z" stroke="#FFDBB8" stroke-opacity="1.000000" stroke-width="2.000000" stroke-linejoin="round"/>
		<path id="Vector" d="M382.09 48.79C381.7 49.54 381.09 50.15 380.34 50.52C379.59 50.9 378.73 51.03 377.9 50.9C377.07 50.77 376.31 50.37 375.71 49.78C375.12 49.18 374.72 48.42 374.59 47.59C374.46 46.76 374.59 45.9 374.97 45.15C375.34 44.4 375.95 43.79 376.7 43.4C377.44 43.01 378.29 42.87 379.13 43C379.97 43.12 380.76 43.52 381.37 44.12C381.97 44.73 382.37 45.52 382.5 46.36C382.62 47.2 382.48 48.05 382.09 48.79Z" stroke="#FFDBB8" stroke-opacity="1.000000" stroke-width="2.000000" stroke-linejoin="round"/>
		<path id="Vector" d="M384 41.5L384.01 " stroke="#FFDBB8" stroke-opacity="1.000000" stroke-width="2.000000" stroke-linejoin="round" stroke-linecap="round"/>
	</g>
	<rect id="twitter" width="24.000000" height="24.000000" transform="translate(400.500000 35.000000)" fill="#FFFFFF" fill-opacity="0"/>
	<g clip-path="url(#clip7_363)">
		<path id="Vector" d="M420.36 39.52C419.75 38.83 418.95 38.34 418.06 38.12C417.17 37.9 416.24 37.95 415.38 38.28C414.52 38.61 413.78 39.19 413.27 39.95C412.75 40.71 412.48 41.61 412.5 42.52L412.5 43.52C410.74 43.57 409 43.18 407.43 42.39C405.86 41.6 404.51 40.43 403.5 39C403.5 39 399.5 48 408.5 52C406.44 53.39 403.98 54.09 401.5 54C410.5 59 421.5 54 421.5 42.5C421.49 42.22 421.47 41.94 421.42 41.66C422.44 40.66 423.16 39.39 423.5 38C422.54 38.67 421.48 39.19 420.36 39.52Z" stroke="#FFDBB8" stroke-opacity="1.000000" stroke-width="2.000000" stroke-linejoin="round"/>
	</g>
	<rect id="facebook" width="24.000000" height="24.000000" transform="translate(434.500000 35.000000)" fill="#FFFFFF" fill-opacity="0"/>
	<g clip-path="url(#clip7_365)">
		<path id="Vector" d="M449.5 37C448.17 37 446.9 37.52 445.96 38.46C445.02 39.4 444.5 40.67 444.5 42L444.5 45L441.5 45L441.5 49L444.5 49L444.5 57L448.5 57L448.5 49L451.5 49L452.5 45L448.5 45L448.5 42C448.5 41.73 448.6 41.48 448.79 41.29C448.98 41.1 449.23 41 449.5 41L452.5 41L452.5 37L449.5 37Z" stroke="#FFDBB8" stroke-opacity="1.000000" stroke-width="2.000000" stroke-linejoin="round"/>
	</g>
	<rect id="linkedin" width="24.000000" height="24.000000" transform="translate(468.500000 35.000000)" fill="#FFFFFF" fill-opacity="0"/>
	<g clip-path="url(#clip7_369)">
		<path id="Vector" d="M488.74 44.75C489.86 45.88 490.5 47.4 490.5 49L490.5 56L486.5 56L486.5 49C486.5 48.46 486.28 47.96 485.91 47.58C485.53 47.21 485.03 47 484.5 47C483.97 47 483.46 47.21 483.08 47.58C482.71 47.96 482.5 48.46 482.5 49L482.5 56L478.5 56L478.5 49C478.5 47.4 479.13 45.88 480.25 44.75C481.38 43.63 482.9 43 484.5 43C486.09 43 487.61 43.63 488.74 44.75Z" stroke="#FFDBB8" stroke-opacity="1.000000" stroke-width="2.000000" stroke-linejoin="round"/>
		<path id="Vector" d="M474.5 44L474.5 56L470.5 56L470.5 44L474.5 44Z" stroke="#FFDBB8" stroke-opacity="1.000000" stroke-width="2.000000" stroke-linejoin="round"/>
		<path id="Vector" d="M472.5 41C471.39 41 470.5 40.1 470.5 39C470.5 37.89 471.39 37 472.5 37C473.6 37 474.5 37.89 474.5 39C474.5 40.1 473.6 41 472.5 41Z" stroke="#FFDBB8" stroke-opacity="1.000000" stroke-width="2.000000" stroke-linejoin="round"/>
	</g>
	<path id="Legal" d="M580.85 19.84Q581.82 20.18 582.91 20.18Q584.6 20.18 585.93 19.48Q585.97 19.46 586.01 19.44Q586.43 19.21 586.8 18.91Q587.61 18.24 588.14 17.23Q588.9 15.76 588.9 13.59L588.9 13.33L582.78 13.33L582.78 14.88L587.12 14.88Q587.02 15.83 586.64 16.55Q586.34 17.1 585.91 17.5Q585.57 17.81 585.15 18.04Q584.19 18.54 582.87 18.54Q581.82 18.54 580.95 18.13Q580.75 18.04 580.57 17.93Q580.24 17.72 579.95 17.47Q579.37 16.96 578.97 16.23Q578.37 15.15 578.37 13.73Q578.37 12.33 578.96 11.25Q579.27 10.67 579.72 10.22Q580.11 9.84 580.59 9.56Q580.69 9.5 580.79 9.45Q581.78 8.94 583.02 8.94Q583.99 8.94 584.84 9.27Q584.99 9.33 585.14 9.4Q585.71 9.67 586.14 10.07Q586.46 10.36 586.71 10.73L587.88 9.55Q587.5 9.07 587.04 8.69Q586.47 8.22 585.77 7.9Q585.65 7.84 585.52 7.79Q584.37 7.32 583.02 7.32Q581.65 7.32 580.49 7.81Q579.78 8.11 579.18 8.55Q578.8 8.84 578.46 9.18Q578.17 9.48 577.92 9.81Q577.43 10.45 577.11 11.22Q577.1 11.26 577.08 11.3Q576.63 12.43 576.63 13.73Q576.63 14.97 577.03 16.05Q577.07 16.15 577.11 16.25Q577.47 17.1 578.01 17.8Q578.22 18.06 578.45 18.3Q578.81 18.67 579.22 18.98Q579.79 19.39 580.45 19.68Q580.65 19.77 580.85 19.84ZM556.97 7.5L556.97 20L564.82 20L564.82 18.45L558.66 18.45L558.66 7.5L556.97 7.5ZM566.91 7.5L566.91 20L575.22 20L575.22 18.45L568.6 18.45L568.6 14.34L574.63 14.34L574.63 12.87L568.6 12.87L568.6 9.05L575.13 9.05L575.13 7.5L566.91 7.5ZM594.77 7.5L589.66 20L591.46 20L592.59 17.17L598.13 17.17L599.25 20L601.09 20L596 7.5L594.77 7.5ZM597.55 15.69L595.37 10.22L593.18 15.69L597.55 15.69ZM602.96 7.5L602.96 20L610.81 20L610.81 18.45L604.65 18.45L604.65 7.5L602.96 7.5Z" fill="#FFFFFF" fill-opacity="1.000000" fill-rule="evenodd"/>
	<path id="Terms Of Serivce" d="M632.52 49.13L632.52 57L634.32 57L634.32 49.13L637.34 49.13L637.34 47.49L634.32 47.49L634.32 46.08Q634.32 45.26 634.72 44.77Q634.75 44.73 634.79 44.7Q634.86 44.61 634.95 44.55Q635.39 44.2 636.11 44.2Q636.57 44.2 636.89 44.35Q637.21 44.5 637.48 44.77L638.65 43.62Q638.15 43.07 637.56 42.8Q636.95 42.52 636.13 42.52Q635.06 42.52 634.24 42.98Q633.78 43.24 633.44 43.6Q633.17 43.88 632.98 44.23Q632.52 45.02 632.52 46.08L632.52 47.49L630.18 47.49L630.18 49.13L632.52 49.13ZM619.48 56.78Q620.62 57.2 621.91 57.2Q623.12 57.2 624.2 56.82Q624.43 56.74 624.64 56.65Q625.38 56.33 626.01 55.86Q626.47 55.53 626.87 55.12Q627.16 54.81 627.41 54.48Q627.98 53.74 628.35 52.83Q628.45 52.6 628.53 52.36Q628.9 51.27 628.9 50.06Q628.9 48.68 628.44 47.47Q628.4 47.36 628.35 47.25Q628 46.38 627.45 45.66Q627.17 45.3 626.86 44.98Q626.4 44.52 625.88 44.15Q625.3 43.74 624.62 43.46Q624.52 43.41 624.42 43.37Q623.24 42.91 621.88 42.91Q620.52 42.91 619.33 43.37Q619.23 43.41 619.13 43.46Q618.41 43.76 617.8 44.2Q617.32 44.55 616.9 44.98Q616.59 45.3 616.33 45.65Q615.78 46.38 615.43 47.24L615.42 47.25Q614.9 48.54 614.9 50.04Q614.9 51.31 615.29 52.45Q615.35 52.63 615.43 52.82Q615.76 53.63 616.27 54.33Q616.56 54.74 616.91 55.11Q617.34 55.54 617.83 55.9Q618.44 56.34 619.15 56.65Q619.32 56.72 619.48 56.78ZM644.68 56.59Q645.84 57.2 647.47 57.2Q649.64 57.2 650.91 56.16Q651.34 55.8 651.63 55.34Q652.18 54.48 652.18 53.27Q652.18 52.18 651.8 51.45Q651.47 50.79 650.95 50.35Q650.89 50.3 650.83 50.26Q650.81 50.24 650.8 50.23Q650.21 49.78 649.51 49.5Q648.8 49.2 648.06 48.95Q647.34 48.69 646.74 48.4Q646.14 48.09 645.76 47.66Q645.73 47.62 645.69 47.57Q645.39 47.16 645.39 46.54Q645.39 46.02 645.62 45.64Q645.78 45.37 646.05 45.17Q646.72 44.68 647.83 44.68Q648.76 44.68 649.46 45.04Q650.17 45.39 650.79 46.12L652.07 44.84Q652.05 44.81 652.02 44.78Q651.36 43.96 650.32 43.45Q649.24 42.91 647.87 42.91Q646.63 42.91 645.64 43.37Q644.9 43.7 644.4 44.26Q644.23 44.44 644.08 44.65Q644.03 44.72 643.99 44.79Q643.51 45.58 643.51 46.65Q643.51 47.71 643.88 48.42Q644.19 48.99 644.65 49.38Q644.75 49.47 644.86 49.54Q645.46 49.97 646.17 50.27Q646.9 50.55 647.62 50.8Q648.34 51.05 648.94 51.37Q649.55 51.67 649.91 52.16Q650.28 52.63 650.28 53.42Q650.28 53.9 650.08 54.27Q649.89 54.63 649.52 54.9Q648.78 55.44 647.54 55.44Q646.28 55.44 645.41 54.97Q644.55 54.5 643.89 53.58L642.62 54.86Q643.51 55.99 644.68 56.59ZM556.1 43.11L556.1 44.84L560.82 44.84L560.82 57L562.7 57L562.7 44.84L567.39 44.84L567.39 43.11L556.1 43.11ZM673.34 45.46Q673.59 45.59 673.92 45.59Q674.24 45.59 674.48 45.46Q674.62 45.38 674.73 45.27Q674.85 45.14 674.93 45Q675.05 44.75 675.05 44.44Q675.05 44.15 674.94 43.92Q674.86 43.76 674.73 43.63Q674.61 43.5 674.47 43.43Q674.23 43.29 673.92 43.29Q673.6 43.29 673.35 43.43Q673.21 43.51 673.09 43.63Q672.97 43.76 672.89 43.91Q672.77 44.14 672.77 44.44Q672.77 44.76 672.91 45.01Q672.98 45.15 673.09 45.27Q673.2 45.38 673.34 45.46ZM624.29 54.82Q623.24 55.39 621.88 55.39Q620.81 55.39 619.9 55.02Q619.87 55 619.84 54.99Q619.19 54.71 618.66 54.27Q618.44 54.09 618.24 53.88Q617.57 53.18 617.2 52.19Q616.84 51.19 616.84 50.04Q616.84 48.47 617.49 47.28Q617.9 46.52 618.5 45.97Q618.85 45.65 619.26 45.4Q619.41 45.31 619.56 45.24Q620.58 44.71 621.88 44.71Q622.99 44.71 623.91 45.11Q624.43 45.33 624.87 45.65Q625.22 45.9 625.51 46.22Q625.63 46.35 625.74 46.48Q626.26 47.11 626.57 47.91Q626.95 48.87 626.95 50.04Q626.95 51.55 626.33 52.74Q626.31 52.77 626.29 52.81Q625.87 53.59 625.25 54.15Q624.9 54.46 624.5 54.71Q624.4 54.77 624.29 54.82ZM569.05 56.8Q569.99 57.2 571.09 57.2Q571.98 57.2 572.78 56.93Q572.99 56.86 573.2 56.78Q573.8 56.52 574.29 56.13Q574.61 55.87 574.88 55.55L573.71 54.37Q573.46 54.68 573.14 54.9Q572.87 55.09 572.56 55.22Q571.89 55.5 571.09 55.5Q570.18 55.5 569.46 55.12Q569.42 55.1 569.39 55.09Q569.04 54.89 568.76 54.61Q568.46 54.31 568.26 53.93Q568.01 53.47 567.92 52.91L575.36 52.91Q575.41 52.62 575.43 52.39Q575.45 52.16 575.45 51.96Q575.45 50.7 574.95 49.69Q574.92 49.62 574.88 49.55Q574.56 48.94 574.08 48.49Q573.73 48.15 573.31 47.89Q573.19 47.83 573.08 47.77Q572.15 47.29 570.98 47.29Q569.94 47.29 569.05 47.66Q568.76 47.78 568.49 47.95Q567.97 48.25 567.55 48.66Q567.07 49.12 566.72 49.71Q566.59 49.95 566.48 50.2Q566.07 51.13 566.07 52.23Q566.07 53.38 566.51 54.34Q566.61 54.56 566.73 54.78Q567.05 55.31 567.46 55.73Q567.93 56.2 568.53 56.55Q568.79 56.69 569.05 56.8ZM567.92 51.41Q568.01 50.9 568.24 50.48Q568.45 50.08 568.75 49.78Q569 49.53 569.32 49.35Q569.33 49.35 569.34 49.34Q570.03 48.95 570.94 48.95Q571.82 48.95 572.44 49.32Q572.68 49.47 572.87 49.65Q573.19 49.95 573.39 50.36Q573.63 50.82 573.7 51.41L567.92 51.41ZM579.21 51.58L579.21 57L577.41 57L577.41 47.49L579.21 47.49L579.21 48.6Q579.29 48.49 579.38 48.38Q579.65 48.03 580 47.79Q580.73 47.29 581.79 47.29Q582.52 47.29 583.09 47.55Q583.67 47.8 584.18 48.38L582.99 49.59Q582.7 49.28 582.34 49.14Q581.97 49 581.5 49Q580.83 49 580.32 49.28Q580.07 49.43 579.86 49.64Q579.21 50.28 579.21 51.58ZM591.89 51.25L591.89 57L593.7 57L593.7 51.23Q593.7 50.54 594.01 50.04Q594.01 50.04 594.01 50.04Q594.18 49.78 594.39 49.59Q594.6 49.39 594.86 49.26Q594.92 49.23 594.98 49.2Q595.46 48.98 596.05 48.98Q596.67 48.98 597.16 49.23Q597.43 49.37 597.67 49.59Q597.82 49.73 597.93 49.9Q598.32 50.44 598.32 51.25L598.32 57L600.14 57L600.14 50.9Q600.14 49.77 599.64 48.98Q599.39 48.55 599.03 48.23Q598.72 47.94 598.34 47.74Q598.28 47.71 598.22 47.68Q597.44 47.29 596.47 47.29Q595.78 47.29 595.16 47.51Q594.89 47.61 594.63 47.75Q594.22 47.97 593.88 48.28Q593.53 48.59 593.26 48.99Q593.25 49 593.24 49.01Q593.23 49 593.22 48.98Q592.98 48.56 592.64 48.24Q592.33 47.95 591.94 47.74Q591.81 47.66 591.66 47.6Q590.97 47.29 590.14 47.29Q589.29 47.29 588.58 47.61Q588.44 47.67 588.3 47.75Q587.87 47.98 587.54 48.31Q587.4 48.45 587.28 48.6L587.28 47.49L585.47 47.49L585.47 57L587.28 57L587.28 51.23Q587.28 50.54 587.59 50.04Q587.59 50.04 587.59 50.04Q587.77 49.75 588.02 49.54Q588.21 49.38 588.43 49.26Q588.46 49.24 588.5 49.22Q589 48.98 589.61 48.98Q590.28 48.98 590.79 49.26Q591.03 49.39 591.25 49.59Q591.4 49.73 591.51 49.9Q591.89 50.44 591.89 51.25ZM604.08 56.99Q604.8 57.2 605.6 57.2Q607.2 57.2 608.15 56.41Q608.51 56.11 608.74 55.72Q609.1 55.11 609.1 54.29Q609.1 53.42 608.73 52.88Q608.55 52.63 608.34 52.42Q608.09 52.19 607.77 52.02Q607.69 51.97 607.61 51.93Q607.11 51.67 606.55 51.51Q605.91 51.32 605.32 51.14Q604.74 50.96 604.38 50.7Q604.23 50.59 604.14 50.45Q604.01 50.24 604.01 49.95Q604.01 49.73 604.11 49.55Q604.21 49.35 604.42 49.21Q604.83 48.93 605.62 48.93Q606.35 48.93 606.94 49.22Q607.23 49.35 607.48 49.55Q607.73 49.75 607.94 50.01L609.1 48.86Q608.8 48.44 608.41 48.13Q608.07 47.86 607.67 47.68Q606.8 47.29 605.67 47.29Q604.61 47.29 603.86 47.63Q603.29 47.9 602.91 48.33Q602.79 48.46 602.7 48.61Q602.64 48.69 602.59 48.79Q602.28 49.36 602.28 50.1Q602.28 50.96 602.64 51.48Q602.78 51.67 602.94 51.83Q603.23 52.11 603.59 52.3Q604.18 52.6 604.82 52.79Q605.47 52.98 606.06 53.17Q606.64 53.36 607 53.65Q607.14 53.75 607.22 53.89Q607.37 54.12 607.37 54.46Q607.37 54.69 607.28 54.87Q607.17 55.1 606.91 55.27Q606.46 55.55 605.62 55.55Q604.78 55.55 604.09 55.25Q604.06 55.23 604.02 55.21Q603.39 54.9 602.9 54.29L601.73 55.46Q601.81 55.55 601.88 55.63Q602.27 56.06 602.77 56.38Q602.86 56.44 602.94 56.49Q603.47 56.8 604.08 56.99ZM656.61 56.8Q657.55 57.2 658.65 57.2Q659.54 57.2 660.34 56.93Q660.55 56.86 660.76 56.78Q661.36 56.52 661.85 56.13Q662.17 55.87 662.44 55.55L661.28 54.37Q661.02 54.68 660.7 54.9Q660.43 55.09 660.12 55.22Q659.45 55.5 658.65 55.5Q657.74 55.5 657.02 55.12Q656.98 55.1 656.95 55.09Q656.6 54.89 656.32 54.61Q656.02 54.31 655.82 53.93Q655.57 53.47 655.48 52.91L662.92 52.91Q662.97 52.62 662.99 52.39Q663.01 52.16 663.01 51.96Q663.01 50.7 662.51 49.69Q662.48 49.62 662.44 49.55Q662.12 48.94 661.64 48.49Q661.29 48.15 660.87 47.89Q660.75 47.83 660.64 47.77Q659.71 47.29 658.54 47.29Q657.5 47.29 656.61 47.66Q656.32 47.78 656.05 47.95Q655.53 48.25 655.11 48.66Q654.63 49.12 654.28 49.71Q654.15 49.95 654.04 50.2Q653.63 51.13 653.63 52.23Q653.63 53.38 654.07 54.34Q654.17 54.56 654.29 54.78Q654.61 55.31 655.03 55.73Q655.49 56.2 656.09 56.55Q656.35 56.69 656.61 56.8ZM655.48 51.41Q655.57 50.9 655.8 50.48Q656.01 50.08 656.31 49.78Q656.56 49.53 656.88 49.35Q656.89 49.35 656.9 49.34Q657.59 48.95 658.5 48.95Q659.38 48.95 660 49.32Q660.24 49.47 660.43 49.65Q660.75 49.95 660.95 50.36Q661.19 50.82 661.26 51.41L655.48 51.41ZM666.78 51.58L666.78 57L664.97 57L664.97 47.49L666.78 47.49L666.78 48.6Q666.85 48.49 666.94 48.38Q667.21 48.03 667.56 47.79Q668.29 47.29 669.35 47.29Q670.08 47.29 670.65 47.55Q671.23 47.8 671.74 48.38L670.55 49.59Q670.26 49.28 669.9 49.14Q669.53 49 669.06 49Q668.39 49 667.88 49.28Q667.63 49.43 667.42 49.64Q666.78 50.28 666.78 51.58ZM689.72 56.82Q690.62 57.2 691.67 57.2Q692.57 57.2 693.37 56.92Q693.55 56.85 693.73 56.78Q694.36 56.49 694.87 56.06Q695.12 55.85 695.34 55.59L694.16 54.4Q693.91 54.68 693.61 54.88Q693.36 55.06 693.07 55.19Q692.44 55.46 691.67 55.46Q690.94 55.46 690.34 55.18Q690.2 55.11 690.07 55.04Q689.75 54.84 689.49 54.58Q689.19 54.28 688.97 53.9L688.97 53.89Q688.57 53.17 688.57 52.23Q688.57 51.31 688.96 50.6Q688.97 50.59 688.97 50.58Q689.2 50.17 689.53 49.85Q689.77 49.62 690.07 49.45Q690.18 49.38 690.29 49.33Q690.91 49.04 691.67 49.04Q692.44 49.04 693.07 49.3Q693.39 49.44 693.66 49.65Q693.92 49.84 694.14 50.1L695.34 48.89Q694.96 48.46 694.5 48.14Q694.13 47.89 693.71 47.7Q693.63 47.67 693.54 47.63Q692.68 47.29 691.67 47.29Q690.61 47.29 689.7 47.67Q689.41 47.79 689.15 47.95Q688.56 48.28 688.1 48.74Q687.68 49.18 687.36 49.71Q687.23 49.95 687.12 50.2Q686.71 51.13 686.71 52.23Q686.71 53.22 687.04 54.07Q687.18 54.42 687.36 54.75Q687.69 55.3 688.12 55.75Q688.57 56.2 689.15 56.54Q689.42 56.7 689.72 56.82ZM699.29 56.8Q700.23 57.2 701.33 57.2Q702.22 57.2 703.02 56.93Q703.23 56.86 703.44 56.78Q704.04 56.52 704.53 56.13Q704.85 55.87 705.12 55.55L703.96 54.37Q703.7 54.68 703.38 54.9Q703.11 55.09 702.8 55.22Q702.13 55.5 701.33 55.5Q700.42 55.5 699.7 55.12Q699.66 55.1 699.63 55.09Q699.28 54.89 699 54.61Q698.7 54.31 698.5 53.93Q698.25 53.47 698.16 52.91L705.6 52.91Q705.65 52.62 705.67 52.39Q705.69 52.16 705.69 51.96Q705.69 50.7 705.19 49.69Q705.16 49.62 705.12 49.55Q704.8 48.94 704.32 48.49Q703.97 48.15 703.55 47.89Q703.43 47.83 703.32 47.77Q702.39 47.29 701.22 47.29Q700.18 47.29 699.29 47.66Q699 47.78 698.73 47.95Q698.21 48.25 697.79 48.66Q697.31 49.12 696.96 49.71Q696.83 49.95 696.72 50.2Q696.31 51.13 696.31 52.23Q696.31 53.38 696.75 54.34Q696.85 54.56 696.97 54.78Q697.29 55.31 697.71 55.73Q698.17 56.2 698.77 56.55Q699.03 56.69 699.29 56.8ZM698.16 51.41Q698.25 50.9 698.48 50.48Q698.69 50.08 698.99 49.78Q699.24 49.53 699.56 49.35Q699.57 49.35 699.58 49.34Q700.27 48.95 701.18 48.95Q702.06 48.95 702.68 49.32Q702.91 49.47 703.11 49.65Q703.43 49.95 703.63 50.36Q703.87 50.82 703.94 51.41L698.16 51.41ZM673.01 47.49L673.01 57L674.82 57L674.82 47.49L673.01 47.49ZM676.38 47.49L680.74 57L681.8 57L686.16 47.49L684.24 47.49L681.3 54.19L678.38 47.49L676.38 47.49Z" fill="#FFDBB8" fill-opacity="1.000000" fill-rule="evenodd"/>
	<path id="Privacy Policy" d="M650.05 80.71L650.05 95L651.86 95L651.86 80.71L650.05 80.71ZM557.14 81.11L557.14 95L559.02 95L559.02 89.59L562.3 89.59Q563.57 89.59 564.57 89.08Q564.57 89.07 564.58 89.07Q565.17 88.76 565.62 88.3Q565.94 87.98 566.18 87.59Q566.23 87.51 566.28 87.43Q566.77 86.53 566.77 85.36Q566.77 84.08 566.21 83.15Q566.2 83.13 566.18 83.11Q565.92 82.67 565.56 82.33Q565.13 81.92 564.58 81.64Q563.58 81.11 562.3 81.11L557.14 81.11ZM559.02 82.75L559.02 87.95L562.18 87.95Q562.96 87.95 563.57 87.64Q563.93 87.45 564.2 87.17Q564.38 86.97 564.52 86.74Q564.88 86.16 564.88 85.36Q564.88 84.56 564.52 83.97Q564.37 83.72 564.16 83.51Q563.9 83.25 563.57 83.08Q562.96 82.75 562.18 82.75L559.02 82.75ZM627.48 81.11L627.48 95L629.36 95L629.36 89.59L632.64 89.59Q633.9 89.59 634.9 89.08Q634.91 89.07 634.92 89.07Q635.51 88.76 635.96 88.3Q636.28 87.98 636.52 87.59Q636.57 87.51 636.62 87.43Q637.11 86.53 637.11 85.36Q637.11 84.08 636.55 83.15Q636.54 83.13 636.52 83.11Q636.26 82.67 635.9 82.33Q635.47 81.92 634.92 81.64Q633.92 81.11 632.64 81.11L627.48 81.11ZM629.36 82.75L629.36 87.95L632.52 87.95Q633.3 87.95 633.91 87.64Q634.27 87.45 634.53 87.17Q634.72 86.97 634.86 86.74Q635.21 86.16 635.21 85.36Q635.21 84.56 634.86 83.97Q634.71 83.72 634.5 83.51Q634.25 83.25 633.91 83.08Q633.3 82.75 632.52 82.75L629.36 82.75ZM577.3 83.46Q577.55 83.59 577.88 83.59Q578.2 83.59 578.44 83.46Q578.58 83.38 578.69 83.27Q578.81 83.14 578.89 83Q579.01 82.75 579.01 82.44Q579.01 82.15 578.9 81.92Q578.82 81.76 578.69 81.63Q578.57 81.5 578.43 81.43Q578.19 81.29 577.88 81.29Q577.56 81.29 577.31 81.43Q577.17 81.51 577.05 81.63Q576.93 81.76 576.85 81.91Q576.73 82.14 576.73 82.44Q576.73 82.76 576.87 83.01Q576.94 83.15 577.05 83.27Q577.16 83.38 577.3 83.46ZM654.84 83.46Q655.09 83.59 655.42 83.59Q655.74 83.59 655.98 83.46Q656.12 83.38 656.23 83.27Q656.35 83.14 656.43 83Q656.55 82.75 656.55 82.44Q656.55 82.15 656.44 81.92Q656.36 81.76 656.23 81.63Q656.11 81.5 655.97 81.43Q655.73 81.29 655.42 81.29Q655.1 81.29 654.85 81.43Q654.71 81.51 654.59 81.63Q654.46 81.76 654.39 81.91Q654.27 82.14 654.27 82.44Q654.27 82.76 654.4 83.01Q654.48 83.15 654.59 83.27Q654.7 83.38 654.84 83.46ZM570.74 89.58L570.74 95L568.93 95L568.93 85.49L570.74 85.49L570.74 86.6Q570.81 86.49 570.9 86.38Q571.17 86.03 571.52 85.79Q572.25 85.29 573.31 85.29Q574.04 85.29 574.61 85.55Q575.19 85.8 575.7 86.38L574.51 87.59Q574.22 87.28 573.86 87.14Q573.49 87 573.02 87Q572.34 87 571.84 87.28Q571.59 87.43 571.38 87.64Q570.74 88.28 570.74 89.58ZM593.72 94.91Q594.47 95.2 595.34 95.2Q596.44 95.2 597.28 94.75Q597.75 94.5 598.12 94.14Q598.32 93.94 598.5 93.71L598.5 95L600.32 95L600.32 85.49L598.5 85.49L598.5 86.79Q598.32 86.56 598.12 86.37Q597.75 86 597.27 85.75Q597.23 85.73 597.19 85.71Q596.37 85.29 595.34 85.29Q594.41 85.29 593.61 85.62Q593.28 85.76 592.96 85.96Q592.56 86.21 592.23 86.53Q591.68 87.04 591.3 87.74Q591.22 87.89 591.15 88.05Q590.69 89.05 590.69 90.25Q590.69 91.47 591.15 92.47Q591.22 92.63 591.3 92.78Q591.67 93.44 592.19 93.94Q592.54 94.28 592.97 94.55Q593.33 94.77 593.72 94.91ZM605.32 94.82Q606.22 95.2 607.27 95.2Q608.17 95.2 608.96 94.92Q609.15 94.85 609.33 94.78Q609.96 94.49 610.47 94.06Q610.72 93.85 610.94 93.59L609.76 92.4Q609.51 92.68 609.21 92.88Q608.96 93.06 608.67 93.19Q608.04 93.46 607.27 93.46Q606.54 93.46 605.94 93.18Q605.8 93.11 605.67 93.04Q605.35 92.84 605.09 92.58Q604.79 92.28 604.57 91.9Q604.57 91.89 604.57 91.89Q604.17 91.17 604.17 90.23Q604.17 89.31 604.56 88.6Q604.57 88.59 604.57 88.58Q604.8 88.17 605.13 87.85Q605.37 87.62 605.67 87.45Q605.78 87.38 605.89 87.33Q606.51 87.04 607.27 87.04Q608.04 87.04 608.67 87.3Q608.99 87.44 609.26 87.65Q609.52 87.84 609.74 88.1L610.94 86.89Q610.56 86.46 610.1 86.14Q609.73 85.89 609.31 85.7Q609.23 85.67 609.14 85.63Q608.28 85.29 607.27 85.29Q606.21 85.29 605.3 85.67Q605.01 85.79 604.75 85.95Q604.16 86.28 603.7 86.74Q603.28 87.18 602.96 87.71Q602.83 87.95 602.72 88.2Q602.31 89.13 602.31 90.23Q602.31 91.22 602.64 92.07Q602.78 92.42 602.96 92.75Q603.28 93.3 603.72 93.75Q604.17 94.2 604.75 94.54Q605.02 94.7 605.32 94.82ZM641.08 94.8Q641.99 95.2 643.07 95.2Q644.05 95.2 644.89 94.87Q645.25 94.73 645.58 94.54Q646.16 94.2 646.62 93.74Q647.06 93.3 647.38 92.75Q647.55 92.46 647.67 92.15Q648.03 91.26 648.03 90.21Q648.03 89.22 647.69 88.35Q647.56 88.02 647.38 87.71Q647.06 87.18 646.64 86.75Q646.18 86.29 645.58 85.95Q645.26 85.76 644.91 85.62Q644.06 85.29 643.07 85.29Q642.01 85.29 641.1 85.68Q640.82 85.8 640.56 85.96Q639.98 86.3 639.52 86.76Q639.09 87.19 638.77 87.72Q638.6 88.01 638.48 88.31Q638.11 89.19 638.11 90.21Q638.11 91.26 638.48 92.15Q638.6 92.46 638.77 92.75Q639.13 93.35 639.61 93.82Q640.03 94.23 640.56 94.54Q640.81 94.69 641.08 94.8ZM661.36 94.82Q662.26 95.2 663.31 95.2Q664.21 95.2 665.01 94.92Q665.19 94.85 665.37 94.78Q666 94.49 666.51 94.06Q666.76 93.85 666.98 93.59L665.8 92.4Q665.55 92.68 665.25 92.88Q665 93.06 664.71 93.19Q664.08 93.46 663.31 93.46Q662.58 93.46 661.98 93.18Q661.84 93.11 661.71 93.04Q661.39 92.84 661.13 92.58Q660.83 92.28 660.61 91.9L660.61 91.89Q660.21 91.17 660.21 90.23Q660.21 89.31 660.6 88.6Q660.61 88.59 660.61 88.58Q660.84 88.17 661.17 87.85Q661.41 87.62 661.71 87.45Q661.82 87.38 661.93 87.33Q662.55 87.04 663.31 87.04Q664.08 87.04 664.71 87.3Q665.03 87.44 665.3 87.65Q665.56 87.84 665.78 88.1L666.98 86.89Q666.6 86.46 666.14 86.14Q665.77 85.89 665.35 85.7Q665.27 85.67 665.18 85.63Q664.32 85.29 663.31 85.29Q662.25 85.29 661.34 85.67Q661.05 85.79 660.79 85.95Q660.2 86.28 659.74 86.74Q659.32 87.18 659 87.71Q658.87 87.95 658.76 88.2Q658.35 89.13 658.35 90.23Q658.35 91.22 658.68 92.07Q658.82 92.42 659 92.75Q659.33 93.3 659.76 93.75Q660.21 94.2 660.79 94.54Q661.06 94.7 661.36 94.82ZM576.97 85.49L576.97 95L578.78 95L578.78 85.49L576.97 85.49ZM580.34 85.49L584.7 95L585.76 95L590.12 85.49L588.2 85.49L585.26 92.19L582.34 85.49L580.34 85.49ZM616.91 95.07L615.12 98.97L613.11 98.97L615.45 94.19L611.72 85.49L613.71 85.49L616.46 92.23L619.35 85.49L621.36 85.49L616.91 95.07ZM654.51 85.49L654.51 95L656.32 95L656.32 85.49L654.51 85.49ZM672.95 95.07L671.16 98.97L669.15 98.97L671.49 94.19L667.76 85.49L669.75 85.49L672.5 92.23L675.39 85.49L677.4 85.49L672.95 95.07ZM597.14 93.12Q596.5 93.5 595.63 93.5Q594.9 93.5 594.3 93.21Q594.16 93.15 594.03 93.08Q593.72 92.89 593.46 92.63Q593.16 92.33 592.94 91.93Q592.55 91.2 592.55 90.23Q592.55 89.3 592.94 88.57Q593.18 88.13 593.52 87.8Q593.75 87.58 594.02 87.42Q594.13 87.35 594.25 87.3Q594.86 87 595.62 87Q596.43 87 597.07 87.34Q597.13 87.37 597.19 87.41Q597.48 87.58 597.7 87.8Q598.03 88.12 598.24 88.55Q598.61 89.28 598.61 90.25Q598.61 91.36 598.12 92.15Q597.98 92.38 597.79 92.59Q597.5 92.91 597.14 93.12ZM644.43 93.17Q643.82 93.46 643.07 93.46Q642.34 93.46 641.74 93.18Q641.6 93.11 641.47 93.04Q641.17 92.86 640.93 92.62Q640.6 92.3 640.37 91.89Q640.36 91.87 640.35 91.84Q639.97 91.13 639.97 90.21Q639.97 89.37 640.31 88.7Q640.34 88.64 640.37 88.58Q640.6 88.17 640.93 87.85Q641.17 87.62 641.47 87.45Q641.58 87.38 641.69 87.33Q642.31 87.04 643.07 87.04Q643.87 87.04 644.51 87.36Q644.58 87.4 644.66 87.45Q644.93 87.6 645.15 87.81Q645.51 88.13 645.77 88.58Q645.81 88.66 645.86 88.75Q646.18 89.4 646.18 90.21Q646.18 91.13 645.8 91.84Q645.79 91.87 645.77 91.89Q645.55 92.29 645.24 92.6Q644.99 92.85 644.67 93.04Q644.55 93.11 644.43 93.17Z" fill="#FFDBB8" fill-opacity="1.000000" fill-rule="evenodd"/>
</svg>
