<svg width="738.000000" height="143.000000" viewBox="0 0 738 143" fill="none" xmlns="http://www.w3.org/2000/svg" xmlns:xlink="http://www.w3.org/1999/xlink">
	<desc>
			Created with Pixso.
	</desc>
	<defs/>
	<rect id="Landing Stats" rx="15.500000" width="737.000000" height="142.000000" transform="translate(0.500000 0.500000)" fill="#FFFDF4" fill-opacity="1.000000"/>
	<path id="2000+" d="M82.25 65.16Q83.93 65.82 86.24 65.82Q88.57 65.82 90.25 65.16Q91.93 64.5 93.03 63.35Q93.38 62.99 93.68 62.59Q94.32 61.71 94.73 60.67Q95.32 59.13 95.42 57.37Q95.45 56.5 95.46 55.4Q95.48 54.29 95.46 53.16Q95.45 52.03 95.42 51.13Q95.32 49.37 94.71 47.85Q94.3 46.83 93.66 45.99Q93.35 45.57 92.98 45.2Q91.86 44.06 90.18 43.42Q88.5 42.78 86.24 42.78Q83.99 42.78 82.31 43.42Q80.63 44.06 79.49 45.2Q79.06 45.63 78.71 46.11Q78.14 46.91 77.77 47.85Q77.17 49.37 77.08 51.13Q77.05 52.03 77.03 53.16Q77.02 54.29 77.03 55.4Q77.05 56.5 77.08 57.37Q77.17 59.13 77.75 60.67Q78.1 61.6 78.66 62.39Q79.01 62.9 79.45 63.35Q80.57 64.5 82.25 65.16ZM103.37 65.16Q105.05 65.82 107.36 65.82Q109.69 65.82 111.37 65.16Q113.05 64.5 114.15 63.35Q114.5 62.99 114.8 62.59Q115.44 61.71 115.85 60.67Q116.44 59.13 116.54 57.37Q116.57 56.5 116.58 55.4Q116.6 54.29 116.58 53.16Q116.57 52.03 116.54 51.13Q116.44 49.37 115.83 47.85Q115.42 46.83 114.78 45.99Q114.47 45.57 114.1 45.2Q112.98 44.06 111.3 43.42Q109.62 42.78 107.36 42.78Q105.11 42.78 103.43 43.42Q101.75 44.06 100.61 45.2Q100.18 45.63 99.83 46.11Q99.26 46.91 98.89 47.85Q98.29 49.37 98.2 51.13Q98.17 52.03 98.15 53.16Q98.14 54.29 98.15 55.4Q98.17 56.5 98.2 57.37Q98.29 59.13 98.87 60.67Q99.22 61.6 99.78 62.39Q100.13 62.9 100.57 63.35Q101.69 64.5 103.37 65.16ZM68.74 65.46Q68.86 65.5 68.99 65.5L73.14 65.5Q73.37 65.5 73.54 65.4Q73.64 65.34 73.71 65.26Q73.84 65.12 73.9 64.96Q73.94 64.84 73.94 64.7L73.94 43.89Q73.94 43.66 73.84 43.48Q73.79 43.39 73.71 43.32Q73.64 43.25 73.56 43.2Q73.38 43.1 73.14 43.1L69.14 43.1Q68.92 43.1 68.74 43.14Q68.57 43.19 68.38 43.32L61.02 49.02Q60.82 49.13 60.72 49.31Q60.66 49.41 60.64 49.54Q60.62 49.69 60.65 49.83Q60.68 50.01 60.79 50.17L62.68 52.63Q62.86 52.86 63.09 52.95Q63.15 52.97 63.21 52.99Q63.29 53 63.37 53Q63.59 52.99 63.8 52.82L68.18 49.46L68.18 64.7Q68.18 64.82 68.22 64.93Q68.28 65.11 68.42 65.26Q68.57 65.4 68.74 65.46ZM88.25 60.54Q87.51 61.17 86.24 61.17Q85.08 61.17 84.35 60.61Q84.07 60.4 83.86 60.1Q83.09 59.03 83.03 57.21Q83.03 56.28 83.02 55.25Q83.01 54.74 83.01 54.23Q83.01 53.72 83.02 53.21Q83.03 52.18 83.03 51.32Q83.09 49.56 83.84 48.47Q84.04 48.19 84.29 47.98Q85.02 47.38 86.24 47.35Q87.51 47.38 88.24 48.02Q88.47 48.22 88.65 48.47Q89.4 49.56 89.43 51.32Q89.49 52.18 89.51 53.21Q89.52 53.72 89.52 54.23Q89.52 54.74 89.51 55.25Q89.49 56.28 89.43 57.21Q89.4 59.03 88.65 60.1Q88.48 60.35 88.25 60.54ZM109.37 60.54Q108.63 61.17 107.36 61.17Q106.2 61.17 105.47 60.61Q105.19 60.4 104.98 60.1Q104.22 59.03 104.15 57.21Q104.15 56.28 104.14 55.25Q104.13 54.74 104.13 54.23Q104.13 53.72 104.14 53.21Q104.15 52.18 104.15 51.32Q104.22 49.56 104.97 48.47Q105.16 48.19 105.41 47.98Q106.14 47.38 107.36 47.35Q108.63 47.38 109.37 48.02Q109.59 48.22 109.77 48.47Q110.52 49.56 110.55 51.32Q110.61 52.18 110.63 53.21Q110.64 53.72 110.64 54.23Q110.64 54.74 110.63 55.25Q110.61 56.28 110.55 57.21Q110.52 59.03 109.77 60.1Q109.6 60.35 109.37 60.54ZM125.67 64.36Q125.83 64.44 126.04 64.44L128.66 64.44Q128.79 64.44 128.9 64.4Q129.08 64.35 129.23 64.2Q129.37 64.05 129.43 63.87Q129.47 63.76 129.47 63.64L129.47 57.78L135.13 57.78Q135.38 57.78 135.57 57.67Q135.64 57.63 135.7 57.57Q135.77 57.5 135.82 57.41Q135.93 57.23 135.93 56.98L135.93 54.64Q135.93 54.42 135.84 54.25Q135.78 54.14 135.7 54.06Q135.62 53.96 135.51 53.91Q135.35 53.82 135.13 53.82L129.47 53.82L129.47 48.15Q129.47 47.94 129.38 47.77Q129.32 47.67 129.23 47.58Q129.09 47.45 128.93 47.4Q128.8 47.35 128.66 47.35L126.04 47.35Q125.81 47.35 125.63 47.45Q125.54 47.5 125.46 47.58Q125.4 47.64 125.35 47.72Q125.24 47.9 125.24 48.15L125.24 53.82L119.55 53.82Q119.35 53.82 119.2 53.89Q119.06 53.95 118.95 54.06Q118.85 54.16 118.79 54.28Q118.71 54.44 118.71 54.64L118.71 56.98Q118.71 57.2 118.81 57.38Q118.86 57.48 118.95 57.57Q119.04 57.64 119.14 57.69Q119.32 57.78 119.55 57.78L125.24 57.78L125.24 63.64Q125.24 63.78 125.29 63.92Q125.34 64.07 125.46 64.2Q125.55 64.3 125.67 64.36Z" fill="#D27722" fill-opacity="1.000000" fill-rule="evenodd"/>
	<path id="Talented Tutors" d="M61.89 90.07L61.89 101.5L63.33 101.5L63.33 90.07L61.89 90.07ZM102.68 101.5L104.13 101.5L104.13 90.07L102.68 90.07L102.68 94.95Q102.54 94.76 102.38 94.61Q102.07 94.31 101.67 94.1Q101.57 94.05 101.48 94Q100.86 93.73 100.13 93.73Q99.37 93.73 98.73 94.01Q98.48 94.12 98.24 94.26Q97.95 94.45 97.7 94.68Q97.24 95.11 96.92 95.69Q96.86 95.81 96.8 95.94Q96.43 96.74 96.43 97.7Q96.43 98.67 96.8 99.48Q96.86 99.6 96.92 99.72Q97.24 100.3 97.7 100.72Q97.95 100.95 98.24 101.14Q98.45 101.27 98.68 101.37Q99.34 101.66 100.13 101.66Q100.95 101.66 101.61 101.33Q101.65 101.31 101.68 101.3Q102.07 101.09 102.37 100.8Q102.54 100.64 102.68 100.45L102.68 101.5ZM44.1 90.39L44.1 91.77L47.88 91.77L47.88 101.5L49.38 101.5L49.38 91.77L53.14 91.77L53.14 90.39L44.1 90.39ZM108.72 90.39L108.72 91.77L112.5 91.77L112.5 101.5L114.01 101.5L114.01 91.77L117.76 91.77L117.76 90.39L108.72 90.39ZM83.86 95.21L83.86 101.5L85.3 101.5L85.3 95.21L87.17 95.21L87.17 93.89L85.3 93.89L85.3 90.71L83.86 90.71L83.86 93.89L81.99 93.89L81.99 95.21L83.86 95.21ZM127.16 95.21L127.16 101.5L128.6 101.5L128.6 95.21L130.47 95.21L130.47 93.89L128.6 93.89L128.6 90.71L127.16 90.71L127.16 93.89L125.28 93.89L125.28 95.21L127.16 95.21ZM54.52 101.43Q55.12 101.66 55.81 101.66Q56.69 101.66 57.37 101.3Q57.75 101.1 58.04 100.81Q58.2 100.65 58.34 100.47L58.34 101.5L59.8 101.5L59.8 93.89L58.34 93.89L58.34 94.93Q58.2 94.75 58.04 94.59Q57.74 94.3 57.36 94.1Q57.33 94.08 57.3 94.07Q56.64 93.73 55.81 93.73Q55.07 93.73 54.44 93.99Q54.17 94.11 53.91 94.26Q53.59 94.47 53.33 94.72Q52.89 95.13 52.59 95.69Q52.52 95.81 52.46 95.94Q52.1 96.74 52.1 97.7Q52.1 98.67 52.47 99.48Q52.52 99.6 52.59 99.72Q52.88 100.25 53.29 100.65Q53.58 100.92 53.92 101.14Q54.21 101.31 54.52 101.43ZM67.33 101.34Q68.08 101.66 68.96 101.66Q69.67 101.66 70.31 101.45Q70.48 101.39 70.65 101.32Q71.13 101.12 71.52 100.8Q71.77 100.6 71.99 100.34L71.06 99.4Q70.85 99.64 70.6 99.82Q70.38 99.97 70.14 100.07Q69.6 100.3 68.96 100.3Q68.23 100.3 67.65 99.99Q67.63 99.98 67.6 99.97Q67.32 99.81 67.09 99.59Q66.86 99.35 66.69 99.04Q66.5 98.67 66.42 98.23L72.37 98.23Q72.42 97.99 72.43 97.81Q72.45 97.62 72.45 97.46Q72.45 96.46 72.05 95.65Q72.02 95.6 71.99 95.54Q71.73 95.05 71.35 94.69Q71.08 94.42 70.73 94.21Q70.64 94.16 70.55 94.11Q69.81 93.73 68.87 93.73Q68.04 93.73 67.33 94.03Q67.1 94.13 66.88 94.26Q66.46 94.5 66.13 94.82Q65.75 95.19 65.47 95.67Q65.36 95.86 65.27 96.06Q64.95 96.8 64.95 97.69Q64.95 98.61 65.29 99.37Q65.37 99.55 65.47 99.72Q65.72 100.14 66.06 100.48Q66.43 100.86 66.92 101.14Q67.12 101.25 67.33 101.34ZM66.42 97.03Q66.5 96.62 66.68 96.28Q66.84 95.96 67.09 95.72Q67.29 95.53 67.54 95.38Q67.55 95.38 67.56 95.37Q68.11 95.06 68.84 95.06Q69.54 95.06 70.04 95.36Q70.23 95.47 70.39 95.62Q70.64 95.86 70.8 96.19Q70.99 96.56 71.05 97.03L66.42 97.03ZM79.4 97.06L79.4 101.5L80.84 101.5L80.84 96.78Q80.84 96.42 80.76 96.08Q80.66 95.67 80.45 95.3Q80.26 94.95 80 94.66Q79.74 94.38 79.41 94.17Q79.25 94.07 79.09 93.99Q78.54 93.73 77.87 93.73Q77.17 93.73 76.59 93.99Q76.45 94.05 76.32 94.13Q75.93 94.35 75.64 94.67Q75.54 94.77 75.46 94.87L75.46 93.89L74.02 93.89L74.02 101.5L75.46 101.5L75.46 97.06Q75.46 96.54 75.67 96.12Q75.69 96.08 75.71 96.04Q75.85 95.8 76.05 95.62Q76.21 95.46 76.42 95.34Q76.46 95.31 76.51 95.29Q76.93 95.08 77.44 95.08Q78.02 95.08 78.45 95.33Q78.67 95.45 78.85 95.64Q79.03 95.82 79.15 96.04Q79.4 96.48 79.4 97.06ZM90.22 101.34Q90.97 101.66 91.86 101.66Q92.57 101.66 93.21 101.45Q93.38 101.39 93.55 101.32Q94.03 101.12 94.42 100.8Q94.67 100.6 94.89 100.34L93.96 99.4Q93.75 99.64 93.49 99.82Q93.28 99.97 93.03 100.07Q92.5 100.3 91.86 100.3Q91.12 100.3 90.55 99.99Q90.52 99.98 90.5 99.97Q90.21 99.81 89.99 99.59Q89.75 99.35 89.59 99.04Q89.39 98.67 89.32 98.23L95.27 98.23Q95.32 97.99 95.33 97.81Q95.35 97.62 95.35 97.46Q95.35 96.46 94.95 95.65Q94.92 95.6 94.89 95.54Q94.63 95.05 94.25 94.69Q93.97 94.42 93.63 94.21Q93.54 94.16 93.45 94.11Q92.7 93.73 91.76 93.73Q90.93 93.73 90.23 94.03Q89.99 94.13 89.77 94.26Q89.36 94.5 89.02 94.82Q88.64 95.19 88.36 95.67Q88.25 95.86 88.17 96.06Q87.84 96.8 87.84 97.69Q87.84 98.61 88.19 99.37Q88.27 99.55 88.37 99.72Q88.62 100.14 88.96 100.48Q89.33 100.86 89.81 101.14Q90.01 101.25 90.22 101.34ZM89.32 97.03Q89.39 96.62 89.57 96.28Q89.74 95.96 89.98 95.72Q90.18 95.53 90.44 95.38Q90.45 95.38 90.45 95.37Q91.01 95.06 91.73 95.06Q92.44 95.06 92.93 95.36Q93.12 95.47 93.28 95.62Q93.53 95.86 93.7 96.19Q93.88 96.56 93.94 97.03L89.32 97.03ZM133.51 101.34Q134.24 101.66 135.11 101.66Q135.89 101.66 136.56 101.39Q136.85 101.28 137.12 101.13Q137.58 100.86 137.94 100.49Q138.29 100.14 138.55 99.7Q138.68 99.47 138.78 99.22Q139.08 98.5 139.08 97.67Q139.08 96.87 138.8 96.18Q138.7 95.92 138.55 95.67Q138.3 95.24 137.96 94.9Q137.59 94.53 137.12 94.26Q136.86 94.11 136.58 94Q135.89 93.73 135.11 93.73Q134.25 93.73 133.53 94.04Q133.31 94.14 133.09 94.26Q132.63 94.54 132.26 94.91Q131.92 95.25 131.67 95.68Q131.53 95.91 131.43 96.15Q131.14 96.85 131.14 97.67Q131.14 98.5 131.43 99.22Q131.53 99.47 131.67 99.7Q131.95 100.18 132.34 100.55Q132.67 100.88 133.09 101.13Q133.3 101.25 133.51 101.34ZM142.13 97.16L142.13 101.5L140.69 101.5L140.69 93.89L142.13 93.89L142.13 94.78Q142.19 94.69 142.26 94.6Q142.48 94.32 142.76 94.13Q143.34 93.73 144.2 93.73Q144.77 93.73 145.23 93.94Q145.7 94.14 146.1 94.6L145.16 95.57Q144.92 95.32 144.63 95.21Q144.34 95.1 143.96 95.1Q143.42 95.1 143.01 95.33Q142.81 95.44 142.64 95.61Q142.13 96.12 142.13 97.16ZM148.15 101.49Q148.72 101.66 149.37 101.66Q150.65 101.66 151.4 101.03Q151.7 100.79 151.88 100.48Q152.17 99.99 152.17 99.33Q152.17 98.63 151.87 98.2Q151.73 98 151.56 97.84Q151.36 97.65 151.11 97.51Q151.04 97.48 150.98 97.44Q150.57 97.24 150.13 97.1Q149.62 96.95 149.15 96.81Q148.68 96.66 148.39 96.46Q148.27 96.37 148.2 96.26Q148.1 96.09 148.1 95.86Q148.1 95.68 148.17 95.54Q148.25 95.38 148.43 95.26Q148.75 95.05 149.38 95.05Q149.97 95.05 150.44 95.27Q150.67 95.38 150.87 95.54Q151.07 95.7 151.24 95.91L152.17 94.98Q151.92 94.65 151.61 94.4Q151.34 94.19 151.02 94.05Q150.33 93.73 149.43 93.73Q148.58 93.73 147.98 94.01Q147.52 94.22 147.21 94.56Q147.12 94.67 147.04 94.78Q147 94.85 146.96 94.93Q146.71 95.38 146.71 95.98Q146.71 96.66 147 97.08Q147.11 97.23 147.24 97.36Q147.47 97.58 147.76 97.74Q148.23 97.98 148.75 98.13Q149.27 98.28 149.73 98.43Q150.2 98.58 150.49 98.82Q150.6 98.9 150.67 99.01Q150.79 99.2 150.79 99.46Q150.79 99.65 150.71 99.8Q150.62 99.98 150.42 100.11Q150.05 100.34 149.38 100.34Q148.71 100.34 148.16 100.1Q148.13 100.08 148.1 100.07Q147.6 99.82 147.21 99.33L146.28 100.27Q146.33 100.34 146.39 100.4Q146.71 100.75 147.11 101.01Q147.17 101.05 147.24 101.09Q147.67 101.34 148.15 101.49ZM119.32 101.34Q119.99 101.66 120.81 101.66Q121.73 101.66 122.44 101.26Q122.47 101.25 122.49 101.23Q122.81 101.05 123.07 100.8Q123.4 100.48 123.63 100.06Q124.05 99.3 124.05 98.31L124.05 93.89L122.61 93.89L122.61 98.25Q122.61 99.16 122.17 99.69Q122.15 99.71 122.13 99.73Q122.01 99.87 121.86 99.97Q121.43 100.27 120.81 100.27Q120.24 100.27 119.82 100.03Q119.68 99.94 119.56 99.83Q119.33 99.62 119.2 99.33Q118.98 98.87 118.98 98.25L118.98 93.89L117.54 93.89L117.54 98.31Q117.54 99.3 117.95 100.06Q118.17 100.44 118.47 100.74Q118.75 101.03 119.11 101.23Q119.21 101.29 119.32 101.34ZM57.26 100Q56.74 100.3 56.05 100.3Q55.46 100.3 54.98 100.07Q54.87 100.02 54.77 99.96Q54.52 99.81 54.32 99.61Q54.07 99.36 53.9 99.04Q53.59 98.46 53.59 97.69Q53.59 96.94 53.9 96.35Q54.09 96 54.36 95.74Q54.54 95.57 54.76 95.43Q54.85 95.38 54.94 95.34Q55.43 95.1 56.04 95.1Q56.69 95.1 57.2 95.37Q57.25 95.4 57.3 95.42Q57.52 95.56 57.71 95.74Q57.97 96 58.14 96.34Q58.43 96.92 58.43 97.7Q58.43 98.58 58.04 99.22Q57.93 99.41 57.78 99.57Q57.54 99.83 57.26 100ZM101.52 100.02Q101.02 100.3 100.37 100.3Q99.77 100.3 99.28 100.06Q99.19 100.01 99.1 99.96Q98.87 99.82 98.68 99.64Q98.42 99.38 98.24 99.04Q97.92 98.46 97.92 97.69Q97.92 96.94 98.24 96.35Q98.44 95.98 98.73 95.7Q98.9 95.55 99.09 95.43Q99.16 95.39 99.24 95.35Q99.73 95.1 100.36 95.1Q101 95.1 101.5 95.37Q101.56 95.4 101.61 95.43Q101.82 95.56 101.99 95.73Q102.27 95.99 102.46 96.35Q102.77 96.92 102.77 97.7Q102.77 98.46 102.47 99.04Q102.28 99.4 102.01 99.66Q101.84 99.83 101.63 99.96Q101.57 99.99 101.52 100.02ZM136.19 100.03Q135.71 100.27 135.11 100.27Q134.52 100.27 134.04 100.04Q133.93 99.99 133.83 99.93Q133.59 99.78 133.39 99.59Q133.13 99.34 132.95 99.01Q132.94 98.99 132.93 98.97Q132.63 98.4 132.63 97.67Q132.63 97 132.9 96.46Q132.92 96.41 132.95 96.36Q133.13 96.03 133.39 95.78Q133.59 95.6 133.83 95.46Q133.91 95.41 134 95.37Q134.5 95.13 135.11 95.13Q135.75 95.13 136.25 95.39Q136.32 95.42 136.38 95.46Q136.59 95.58 136.77 95.74Q137.06 96.01 137.26 96.36Q137.3 96.43 137.33 96.5Q137.59 97.02 137.59 97.67Q137.59 98.4 137.29 98.97Q137.28 98.99 137.27 99.01Q137.09 99.33 136.84 99.58Q136.64 99.78 136.39 99.93Q136.29 99.99 136.19 100.03Z" fill="#403D39" fill-opacity="1.000000" fill-rule="evenodd"/>
	<path id="2000+" d="M251.5 65.16Q253.18 65.82 255.49 65.82Q257.82 65.82 259.5 65.16Q261.18 64.5 262.28 63.35Q262.63 62.99 262.93 62.59Q263.57 61.71 263.98 60.67Q264.57 59.13 264.67 57.37Q264.7 56.5 264.71 55.4Q264.73 54.29 264.71 53.16Q264.7 52.03 264.67 51.13Q264.57 49.37 263.96 47.85Q263.55 46.83 262.91 45.99Q262.6 45.57 262.23 45.2Q261.11 44.06 259.43 43.42Q257.75 42.78 255.49 42.78Q253.24 42.78 251.56 43.42Q249.88 44.06 248.74 45.2Q248.31 45.63 247.96 46.11Q247.39 46.91 247.02 47.85Q246.42 49.37 246.33 51.13Q246.3 52.03 246.28 53.16Q246.27 54.29 246.28 55.4Q246.3 56.5 246.33 57.37Q246.42 59.13 247 60.67Q247.35 61.6 247.91 62.39Q248.26 62.9 248.7 63.35Q249.82 64.5 251.5 65.16ZM272.62 65.16Q274.3 65.82 276.61 65.82Q278.94 65.82 280.62 65.16Q282.3 64.5 283.4 63.35Q283.75 62.99 284.05 62.59Q284.69 61.71 285.1 60.67Q285.69 59.13 285.79 57.37Q285.82 56.5 285.83 55.4Q285.85 54.29 285.83 53.16Q285.82 52.03 285.79 51.13Q285.69 49.37 285.08 47.85Q284.67 46.83 284.03 45.99Q283.72 45.57 283.35 45.2Q282.23 44.06 280.55 43.42Q278.87 42.78 276.61 42.78Q274.36 42.78 272.68 43.42Q271 44.06 269.86 45.2Q269.43 45.63 269.08 46.11Q268.51 46.91 268.14 47.85Q267.54 49.37 267.45 51.13Q267.42 52.03 267.4 53.16Q267.39 54.29 267.4 55.4Q267.42 56.5 267.45 57.37Q267.54 59.13 268.12 60.67Q268.47 61.6 269.03 62.39Q269.38 62.9 269.82 63.35Q270.94 64.5 272.62 65.16ZM293.74 65.16Q295.42 65.82 297.73 65.82Q300.06 65.82 301.74 65.16Q303.42 64.5 304.52 63.35Q304.87 62.99 305.17 62.59Q305.81 61.71 306.22 60.67Q306.81 59.13 306.91 57.37Q306.94 56.5 306.95 55.4Q306.97 54.29 306.95 53.16Q306.94 52.03 306.91 51.13Q306.81 49.37 306.2 47.85Q305.79 46.83 305.15 45.99Q304.84 45.57 304.47 45.2Q303.35 44.06 301.67 43.42Q299.99 42.78 297.73 42.78Q295.48 42.78 293.8 43.42Q292.12 44.06 290.98 45.2Q290.55 45.63 290.2 46.11Q289.63 46.91 289.26 47.85Q288.66 49.37 288.57 51.13Q288.54 52.03 288.52 53.16Q288.51 54.29 288.52 55.4Q288.54 56.5 288.57 57.37Q288.66 59.13 289.24 60.67Q289.59 61.6 290.15 62.39Q290.5 62.9 290.94 63.35Q292.06 64.5 293.74 65.16ZM237.99 65.46Q238.11 65.5 238.24 65.5L242.39 65.5Q242.62 65.5 242.79 65.4Q242.89 65.34 242.96 65.26Q243.09 65.12 243.15 64.96Q243.19 64.84 243.19 64.7L243.19 43.89Q243.19 43.66 243.09 43.48Q243.04 43.39 242.96 43.32Q242.89 43.25 242.81 43.2Q242.63 43.1 242.39 43.1L238.39 43.1Q238.17 43.1 237.99 43.14Q237.82 43.19 237.63 43.32L230.27 49.02Q230.07 49.13 229.97 49.31Q229.91 49.41 229.89 49.54Q229.87 49.69 229.9 49.83Q229.93 50.01 230.04 50.17L231.93 52.63Q232.11 52.86 232.34 52.95Q232.4 52.97 232.46 52.99Q232.54 53 232.62 53Q232.84 52.99 233.05 52.82L237.43 49.46L237.43 64.7Q237.43 64.82 237.47 64.93Q237.53 65.11 237.68 65.26Q237.82 65.4 237.99 65.46ZM257.5 60.54Q256.76 61.17 255.49 61.17Q254.33 61.17 253.6 60.61Q253.32 60.4 253.11 60.1Q252.35 59.03 252.28 57.21Q252.28 56.28 252.27 55.25Q252.26 54.74 252.26 54.23Q252.26 53.72 252.27 53.21Q252.28 52.18 252.28 51.32Q252.35 49.56 253.1 48.47Q253.29 48.19 253.54 47.98Q254.27 47.38 255.49 47.35Q256.76 47.38 257.5 48.02Q257.72 48.22 257.9 48.47Q258.65 49.56 258.68 51.32Q258.74 52.18 258.76 53.21Q258.77 53.72 258.77 54.23Q258.77 54.74 258.76 55.25Q258.74 56.28 258.68 57.21Q258.65 59.03 257.9 60.1Q257.73 60.35 257.5 60.54ZM278.62 60.54Q277.88 61.17 276.61 61.17Q275.45 61.17 274.72 60.61Q274.44 60.4 274.23 60.1Q273.47 59.03 273.4 57.21Q273.4 56.28 273.39 55.25Q273.38 54.74 273.38 54.23Q273.38 53.72 273.39 53.21Q273.4 52.18 273.4 51.32Q273.47 49.56 274.22 48.47Q274.41 48.19 274.66 47.98Q275.39 47.38 276.61 47.35Q277.88 47.38 278.62 48.02Q278.84 48.22 279.02 48.47Q279.77 49.56 279.8 51.32Q279.86 52.18 279.88 53.21Q279.89 53.72 279.89 54.23Q279.89 54.74 279.88 55.25Q279.86 56.28 279.8 57.21Q279.77 59.03 279.02 60.1Q278.85 60.35 278.62 60.54ZM299.74 60.54Q299 61.17 297.73 61.17Q296.57 61.17 295.84 60.61Q295.56 60.4 295.35 60.1Q294.59 59.03 294.52 57.21Q294.52 56.28 294.51 55.25Q294.5 54.74 294.5 54.23Q294.5 53.72 294.51 53.21Q294.52 52.18 294.52 51.32Q294.59 49.56 295.34 48.47Q295.53 48.19 295.78 47.98Q296.51 47.38 297.73 47.35Q299 47.38 299.74 48.02Q299.96 48.22 300.14 48.47Q300.89 49.56 300.92 51.32Q300.98 52.18 301 53.21Q301.01 53.72 301.01 54.23Q301.01 54.74 301 55.25Q300.98 56.28 300.92 57.21Q300.89 59.03 300.14 60.1Q299.97 60.35 299.74 60.54ZM316.04 64.36Q316.2 64.44 316.41 64.44L319.03 64.44Q319.16 64.44 319.27 64.4Q319.45 64.35 319.6 64.2Q319.74 64.05 319.8 63.87Q319.84 63.76 319.84 63.64L319.84 57.78L325.5 57.78Q325.75 57.78 325.94 57.67Q326.01 57.63 326.07 57.57Q326.14 57.5 326.19 57.41Q326.3 57.23 326.3 56.98L326.3 54.64Q326.3 54.42 326.21 54.25Q326.16 54.14 326.07 54.06Q325.99 53.96 325.88 53.91Q325.72 53.82 325.5 53.82L319.84 53.82L319.84 48.15Q319.84 47.94 319.75 47.77Q319.69 47.67 319.6 47.58Q319.46 47.45 319.3 47.4Q319.17 47.35 319.03 47.35L316.41 47.35Q316.18 47.35 316 47.45Q315.91 47.5 315.83 47.58Q315.77 47.64 315.72 47.72Q315.61 47.9 315.61 48.15L315.61 53.82L309.92 53.82Q309.72 53.82 309.57 53.89Q309.43 53.95 309.32 54.06Q309.22 54.16 309.16 54.28Q309.08 54.44 309.08 54.64L309.08 56.98Q309.08 57.2 309.18 57.38Q309.23 57.48 309.32 57.57Q309.41 57.64 309.51 57.69Q309.69 57.78 309.92 57.78L315.61 57.78L315.61 63.64Q315.61 63.78 315.66 63.92Q315.71 64.07 315.83 64.2Q315.92 64.3 316.04 64.36Z" fill="#D27722" fill-opacity="1.000000" fill-rule="evenodd"/>
	<path id="Talented Tutors" d="M277.21 101.5L278.67 101.5L278.67 90.07L277.21 90.07L277.21 94.95Q277.07 94.76 276.91 94.61Q276.6 94.31 276.2 94.1Q276.11 94.05 276.01 94Q275.4 93.73 274.67 93.73Q273.91 93.73 273.26 94.01Q273.01 94.12 272.78 94.26Q272.48 94.45 272.23 94.68Q271.77 95.11 271.46 95.69Q271.39 95.81 271.33 95.94Q270.97 96.74 270.97 97.7Q270.97 98.67 271.34 99.48Q271.39 99.6 271.46 99.72Q271.77 100.3 272.23 100.72Q272.48 100.95 272.78 101.14Q272.99 101.27 273.21 101.37Q273.88 101.66 274.67 101.66Q275.49 101.66 276.15 101.33Q276.18 101.31 276.22 101.3Q276.61 101.09 276.91 100.8Q277.07 100.64 277.21 100.45L277.21 101.5ZM249.53 101.18Q250.46 101.66 251.77 101.66Q253.5 101.66 254.52 100.82Q254.87 100.54 255.1 100.17Q255.53 99.48 255.53 98.52Q255.53 97.64 255.23 97.06Q254.97 96.53 254.55 96.18Q254.5 96.14 254.46 96.1Q254.44 96.09 254.43 96.08Q253.96 95.73 253.4 95.5Q252.83 95.26 252.24 95.06Q251.66 94.85 251.18 94.62Q250.7 94.37 250.4 94.03Q250.37 93.99 250.34 93.95Q250.1 93.63 250.1 93.13Q250.1 92.72 250.29 92.41Q250.41 92.2 250.63 92.03Q251.16 91.64 252.06 91.64Q252.8 91.64 253.36 91.93Q253.93 92.21 254.43 92.79L255.45 91.77Q255.43 91.74 255.41 91.72Q254.88 91.07 254.04 90.66Q253.18 90.23 252.09 90.23Q251.1 90.23 250.3 90.59Q249.71 90.86 249.31 91.3Q249.17 91.45 249.06 91.62Q249.02 91.67 248.98 91.73Q248.6 92.36 248.6 93.22Q248.6 94.07 248.9 94.63Q249.14 95.09 249.51 95.4Q249.59 95.47 249.68 95.53Q250.16 95.88 250.73 96.11Q251.31 96.34 251.88 96.54Q252.46 96.74 252.94 96.99Q253.43 97.24 253.72 97.62Q254.01 98.01 254.01 98.63Q254.01 99.02 253.85 99.32Q253.7 99.6 253.41 99.82Q252.81 100.25 251.82 100.25Q250.81 100.25 250.12 99.87Q249.43 99.5 248.91 98.76L247.88 99.78Q248.6 100.69 249.53 101.18ZM258.47 95.21L258.47 101.5L259.91 101.5L259.91 95.21L261.79 95.21L261.79 93.89L259.91 93.89L259.91 90.71L258.47 90.71L258.47 93.89L256.6 93.89L256.6 95.21L258.47 95.21ZM299.18 95.21L299.18 101.5L300.62 101.5L300.62 95.21L302.49 95.21L302.49 93.89L300.62 93.89L300.62 90.71L299.18 90.71L299.18 93.89L297.31 93.89L297.31 95.21L299.18 95.21ZM282.65 101.34Q283.4 101.66 284.28 101.66Q284.99 101.66 285.63 101.45Q285.8 101.39 285.97 101.32Q286.45 101.12 286.84 100.8Q287.09 100.6 287.31 100.34L286.38 99.4Q286.17 99.64 285.92 99.82Q285.7 99.97 285.46 100.07Q284.92 100.3 284.28 100.3Q283.55 100.3 282.97 99.99Q282.95 99.98 282.92 99.97Q282.63 99.81 282.41 99.59Q282.18 99.35 282.01 99.04Q281.81 98.67 281.74 98.23L287.69 98.23Q287.74 97.99 287.75 97.81Q287.77 97.62 287.77 97.46Q287.77 96.46 287.37 95.65Q287.34 95.6 287.31 95.54Q287.05 95.05 286.67 94.69Q286.39 94.42 286.05 94.21Q285.96 94.16 285.87 94.11Q285.13 93.73 284.19 93.73Q283.36 93.73 282.65 94.03Q282.42 94.13 282.19 94.26Q281.78 94.5 281.45 94.82Q281.06 95.19 280.78 95.67Q280.68 95.86 280.59 96.06Q280.26 96.8 280.26 97.69Q280.26 98.61 280.61 99.37Q280.69 99.55 280.79 99.72Q281.04 100.14 281.38 100.48Q281.75 100.86 282.23 101.14Q282.44 101.25 282.65 101.34ZM281.74 97.03Q281.82 96.62 282 96.28Q282.16 95.96 282.41 95.72Q282.61 95.53 282.86 95.38Q282.87 95.38 282.88 95.37Q283.43 95.06 284.16 95.06Q284.86 95.06 285.35 95.36Q285.55 95.47 285.7 95.62Q285.95 95.86 286.12 96.19Q286.31 96.56 286.37 97.03L281.74 97.03ZM294.72 97.06L294.72 101.5L296.15 101.5L296.15 96.78Q296.15 96.42 296.07 96.08Q295.98 95.67 295.77 95.3Q295.58 94.95 295.31 94.66Q295.05 94.38 294.72 94.17Q294.57 94.07 294.41 93.99Q293.86 93.73 293.19 93.73Q292.49 93.73 291.9 93.99Q291.77 94.05 291.64 94.13Q291.25 94.35 290.95 94.67Q290.86 94.77 290.78 94.87L290.78 93.89L289.34 93.89L289.34 101.5L290.78 101.5L290.78 97.06Q290.78 96.54 290.99 96.12Q291.01 96.08 291.03 96.04Q291.17 95.8 291.36 95.62Q291.53 95.46 291.74 95.34Q291.78 95.31 291.83 95.29Q292.24 95.08 292.76 95.08Q293.34 95.08 293.77 95.33Q293.99 95.45 294.17 95.64Q294.35 95.82 294.47 96.04Q294.72 96.48 294.72 97.06ZM304.94 101.49Q305.51 101.66 306.16 101.66Q307.44 101.66 308.19 101.03Q308.49 100.79 308.67 100.48Q308.96 99.99 308.96 99.33Q308.96 98.63 308.66 98.2Q308.52 98 308.35 97.84Q308.15 97.65 307.9 97.51Q307.83 97.48 307.77 97.44Q307.36 97.24 306.92 97.1Q306.41 96.95 305.94 96.81Q305.47 96.66 305.18 96.46Q305.06 96.37 304.99 96.26Q304.89 96.09 304.89 95.86Q304.89 95.68 304.96 95.54Q305.04 95.38 305.22 95.26Q305.54 95.05 306.17 95.05Q306.76 95.05 307.23 95.27Q307.47 95.38 307.66 95.54Q307.86 95.7 308.03 95.91L308.96 94.98Q308.72 94.65 308.4 94.4Q308.13 94.19 307.81 94.05Q307.12 93.73 306.22 93.73Q305.37 93.73 304.77 94.01Q304.31 94.22 304 94.56Q303.91 94.67 303.83 94.78Q303.79 94.85 303.75 94.93Q303.5 95.38 303.5 95.98Q303.5 96.66 303.79 97.08Q303.9 97.23 304.03 97.36Q304.26 97.58 304.55 97.74Q305.02 97.98 305.54 98.13Q306.06 98.28 306.52 98.43Q306.99 98.58 307.28 98.82Q307.39 98.9 307.46 99.01Q307.58 99.2 307.58 99.46Q307.58 99.65 307.5 99.8Q307.41 99.98 307.21 100.11Q306.84 100.34 306.17 100.34Q305.5 100.34 304.95 100.1Q304.92 100.08 304.89 100.07Q304.39 99.82 304 99.33L303.07 100.27Q303.12 100.34 303.19 100.4Q303.5 100.75 303.9 101.01Q303.96 101.05 304.03 101.09Q304.46 101.34 304.94 101.49ZM264.78 101.34Q265.45 101.66 266.27 101.66Q267.2 101.66 267.91 101.26Q267.93 101.25 267.95 101.23Q268.27 101.05 268.53 100.8Q268.86 100.48 269.1 100.06Q269.51 99.3 269.51 98.31L269.51 93.89L268.08 93.89L268.08 98.25Q268.08 99.16 267.63 99.69Q267.61 99.71 267.6 99.73Q267.47 99.87 267.32 99.97Q266.89 100.27 266.27 100.27Q265.7 100.27 265.29 100.03Q265.14 99.94 265.02 99.83Q264.8 99.62 264.66 99.33Q264.44 98.87 264.44 98.25L264.44 93.89L263 93.89L263 98.31Q263 99.3 263.42 100.06Q263.63 100.44 263.93 100.74Q264.21 101.03 264.58 101.23Q264.68 101.29 264.78 101.34ZM276.05 100.02Q275.55 100.3 274.91 100.3Q274.3 100.3 273.81 100.06Q273.72 100.01 273.63 99.96Q273.4 99.82 273.22 99.64Q272.95 99.38 272.77 99.04Q272.46 98.46 272.46 97.69Q272.46 96.94 272.77 96.35Q272.97 95.98 273.27 95.7Q273.43 95.55 273.62 95.43Q273.7 95.39 273.77 95.35Q274.27 95.1 274.89 95.1Q275.54 95.1 276.04 95.37Q276.09 95.4 276.14 95.43Q276.35 95.56 276.52 95.73Q276.8 95.99 276.99 96.35Q277.3 96.92 277.3 97.7Q277.3 98.46 277 99.04Q276.82 99.4 276.54 99.66Q276.37 99.83 276.16 99.96Q276.11 99.99 276.05 100.02Z" fill="#403D39" fill-opacity="1.000000" fill-rule="evenodd"/>
	<path id="4.8" d="M456.69 63.92C458.01 64.48 459.54 64.76 461.27 64.76C462.99 64.76 464.51 64.48 465.81 63.92C467.13 63.35 468.16 62.56 468.88 61.56Q469.28 61.02 469.54 60.41Q470 59.34 470 58.07C470 56.87 469.61 55.82 468.82 54.9C468.05 53.98 467.04 53.32 465.78 52.92C466.85 52.49 467.71 51.85 468.37 51Q468.94 50.26 469.19 49.42Q469.36 48.81 469.36 48.15C469.36 46.91 469.01 45.8 468.31 44.82C467.6 43.84 466.63 43.07 465.39 42.52Q463.57 41.65 461.27 41.65C459.73 41.65 458.35 41.94 457.14 42.52C455.92 43.07 454.95 43.84 454.23 44.82C453.52 45.8 453.17 46.91 453.17 48.15C453.17 49.19 453.5 50.14 454.16 51C454.82 51.85 455.69 52.49 456.75 52.92C455.92 53.17 455.19 53.56 454.55 54.07C453.91 54.58 453.41 55.18 453.04 55.86C452.7 56.54 452.53 57.28 452.53 58.07Q452.53 59.4 453.02 60.52Q453.26 61.06 453.62 61.56C454.37 62.56 455.39 63.35 456.69 63.92ZM434.59 59.44L434.59 64.4L439.78 64.4L439.78 59.44L442.56 59.44L442.56 55.12L439.78 55.12L439.78 42L433.73 42L421.98 55.25L421.98 59.44L434.59 59.44ZM462.93 50.9C462.44 51.13 461.89 51.25 461.27 51.25C460.65 51.25 460.09 51.13 459.6 50.9C459.11 50.66 458.73 50.34 458.45 49.94C458.17 49.51 458.03 49.03 458.03 48.5C458.03 47.97 458.17 47.5 458.45 47.09C458.73 46.66 459.11 46.33 459.6 46.1C460.09 45.86 460.65 45.75 461.27 45.75C461.89 45.75 462.44 45.86 462.93 46.1C463.42 46.33 463.81 46.66 464.08 47.09C464.36 47.5 464.5 47.97 464.5 48.5C464.5 49.03 464.36 49.51 464.08 49.94C463.81 50.34 463.42 50.66 462.93 50.9ZM434.59 55.12L427.9 55.12L434.59 47.6L434.59 55.12ZM463.22 60.28C462.66 60.51 462.01 60.63 461.27 60.63C460.54 60.63 459.89 60.51 459.31 60.28C458.76 60.02 458.32 59.67 458 59.22C457.68 58.77 457.52 58.27 457.52 57.72C457.52 57.14 457.68 56.64 458 56.21C458.32 55.76 458.76 55.42 459.31 55.19C459.89 54.93 460.54 54.8 461.27 54.8C462.01 54.8 462.66 54.93 463.22 55.19C463.77 55.42 464.21 55.76 464.53 56.21C464.85 56.64 465.01 57.14 465.01 57.72Q465.01 58.15 464.88 58.54Q464.76 58.9 464.53 59.22C464.21 59.67 463.77 60.02 463.22 60.28ZM445.23 63.89C445.82 64.47 446.53 64.76 447.34 64.76C448.15 64.76 448.84 64.47 449.42 63.89C450.02 63.29 450.32 62.59 450.32 61.78Q450.32 61.22 450.12 60.73Q449.9 60.16 449.42 59.7C448.84 59.1 448.15 58.8 447.34 58.8Q446.82 58.8 446.35 58.97Q445.74 59.19 445.23 59.7C444.65 60.28 444.36 60.97 444.36 61.78Q444.36 62.34 444.54 62.83Q444.76 63.41 445.23 63.89Z" fill="#D27722" fill-opacity="1.000000" fill-rule="evenodd"/>
	<path id="Vector" d="M489.62 45.5L491.94 50.43L497.12 51.23L493.37 55.07L494.26 60.5L489.62 57.93L484.99 60.5L485.87 55.07L482.12 51.23L487.3 50.43L489.62 45.5Z" fill="#D27722" fill-opacity="1.000000" fill-rule="nonzero"/>
	<path id="Vector" d="M491.94 50.43L497.12 51.23L493.37 55.07L494.26 60.5L489.62 57.93L484.99 60.5L485.87 55.07L482.12 51.23L487.3 50.43L489.62 45.5L491.94 50.43Z" stroke="#D27722" stroke-opacity="1.000000" stroke-width="2.000000" stroke-linejoin="round"/>
	<path id="Rating" d="M460.82 92.53L460.82 93.97L462.72 93.97L462.72 92.53L460.82 92.53ZM436.63 92.83L436.63 103.14L438.37 103.14L438.37 99.49L440.31 99.49Q440.9 99.49 441.14 99.66C441.31 99.78 441.46 99.98 441.57 100.26L442.84 103.14L444.63 103.14L443.33 100.14C443.23 99.88 443.12 99.66 443.01 99.5C442.91 99.34 442.76 99.19 442.56 99.06C443.25 98.85 443.77 98.5 444.13 97.98C444.5 97.47 444.68 96.85 444.68 96.13Q444.68 94.72 443.99 93.86Q443.94 93.79 443.88 93.73Q443.85 93.69 443.82 93.66Q443.03 92.83 441.36 92.83L436.63 92.83ZM455.5 102.66C455.9 103.08 456.51 103.3 457.32 103.3C457.92 103.3 458.43 103.21 458.84 103.04L458.84 101.81C458.52 101.91 458.22 101.97 457.93 101.97C457.47 101.97 457.14 101.88 456.94 101.71C456.73 101.53 456.63 101.22 456.63 100.78L456.63 96.91L458.54 96.91L458.65 95.55L456.63 95.55L456.63 93.28L454.91 93.81L454.91 95.55L453.79 95.55L453.79 96.91L454.91 96.91L454.91 100.88C454.91 101.63 455.1 102.22 455.5 102.66ZM440.9 98.08L438.37 98.08L438.37 94.19L441.06 94.19Q441.97 94.19 442.43 94.64Q442.93 95.13 442.93 96.13Q442.93 97.09 442.45 97.56Q442.42 97.59 442.39 97.62Q441.84 98.08 440.9 98.08ZM446.7 103.04C447.12 103.21 447.56 103.3 448.04 103.3Q449.07 103.3 449.74 103.06C450.2 102.9 450.58 102.67 450.89 102.37L451 103.14L452.49 103.14L452.49 98.26C452.49 97.24 452.2 96.51 451.61 96.06Q450.75 95.39 449.08 95.39C448.52 95.39 447.99 95.43 447.5 95.52C447.01 95.6 446.59 95.72 446.25 95.86L446.25 97.15C447.03 96.88 447.87 96.75 448.76 96.75C449.33 96.75 449.76 96.8 450.04 96.9C450.34 96.99 450.54 97.15 450.65 97.36C450.77 97.57 450.83 97.86 450.83 98.22L450.83 98.56L448.4 98.56Q446.84 98.56 446.09 99.23Q445.83 99.46 445.66 99.75Q445.36 100.27 445.36 100.98C445.36 101.49 445.48 101.92 445.72 102.27C445.97 102.61 446.29 102.87 446.7 103.04ZM464.74 95.55L464.74 103.14L466.48 103.14L466.48 97.58C466.74 97.33 467.05 97.12 467.43 96.96C467.81 96.8 468.2 96.72 468.59 96.72C469.26 96.72 469.7 96.84 469.94 97.07C470.18 97.31 470.31 97.72 470.31 98.3L470.31 103.14L472.03 103.14L472.03 98.22C472.03 97.25 471.81 96.54 471.36 96.08C470.91 95.62 470.2 95.39 469.22 95.39Q468.35 95.39 467.63 95.68C467.16 95.86 466.76 96.08 466.42 96.35L466.34 95.55L464.74 95.55ZM475.36 105.84C475.93 105.91 476.49 105.95 477.06 105.95C478.27 105.95 479.19 105.79 479.83 105.46C480.48 105.14 480.8 104.6 480.8 103.86C480.8 103.24 480.6 102.77 480.18 102.45C479.77 102.12 479.19 101.95 478.44 101.95L476.31 101.95Q475.86 101.95 475.67 101.86C475.54 101.78 475.48 101.66 475.48 101.5C475.48 101.27 475.6 101.08 475.86 100.94C476.12 100.8 476.4 100.72 476.72 100.69C476.89 100.71 477.05 100.73 477.19 100.75C477.34 100.76 477.5 100.77 477.67 100.77Q479.16 100.77 479.89 100.08C480.38 99.61 480.63 98.97 480.63 98.16C480.63 97.86 480.58 97.58 480.48 97.33C480.39 97.07 480.24 96.86 480.04 96.69L481.32 96.69L481.36 95.55L478.58 95.55C478.43 95.52 478.22 95.49 477.96 95.46C477.69 95.41 477.43 95.39 477.19 95.39C476.03 95.39 475.15 95.61 474.56 96.05C473.99 96.48 473.7 97.19 473.7 98.16C473.7 98.68 473.8 99.13 474 99.5C474.22 99.88 474.54 100.17 474.98 100.38C474.59 100.52 474.3 100.72 474.12 100.99Q473.95 101.24 473.88 101.51Q473.84 101.68 473.84 101.86C473.84 102.83 474.53 103.31 475.91 103.31L477.96 103.31C478.44 103.31 478.76 103.35 478.93 103.44C479.1 103.54 479.19 103.7 479.19 103.92C479.19 104.22 479.01 104.41 478.66 104.5C478.31 104.58 477.75 104.62 476.98 104.62Q476.23 104.62 475.4 104.51C474.84 104.44 474.35 104.33 473.92 104.19L473.92 105.54C474.32 105.67 474.8 105.78 475.36 105.84ZM460.96 96.88L460.96 103.14L462.7 103.14L462.7 95.55L459.97 95.55L459.81 96.88L460.96 96.88ZM478.63 99.31Q478.23 99.66 477.19 99.66C476.51 99.66 476.02 99.54 475.73 99.3C475.45 99.05 475.32 98.66 475.32 98.11Q475.32 97.25 475.74 96.88Q475.75 96.87 475.76 96.86C476.06 96.62 476.54 96.5 477.19 96.5Q478.23 96.5 478.63 96.88C478.91 97.14 479.04 97.55 479.04 98.11C479.04 98.68 478.91 99.08 478.63 99.31ZM449.87 101.79C449.48 101.96 449.03 102.05 448.51 102.05C448.02 102.05 447.64 101.96 447.37 101.79C447.1 101.62 446.97 101.34 446.97 100.94C446.97 100.54 447.08 100.24 447.31 100.05C447.54 99.84 447.92 99.74 448.43 99.74L450.83 99.74L450.83 101.07Q450.46 101.52 449.87 101.79Z" fill="#403D39" fill-opacity="1.000000" fill-rule="evenodd"/>
	<path id="2000+" d="M610.64 65.42Q610.81 65.5 611.01 65.5L627.43 65.5Q627.64 65.5 627.81 65.41Q627.93 65.35 628.02 65.26Q628.17 65.11 628.22 64.93Q628.26 64.82 628.26 64.7L628.26 61.46Q628.26 61.25 628.17 61.08Q628.11 60.98 628.02 60.89Q627.93 60.81 627.83 60.76Q627.65 60.67 627.43 60.67L619.21 60.67L622.15 57.69Q623.88 56.38 625.14 55.14Q626.41 53.91 627.1 52.55Q627.34 52.06 627.5 51.55Q627.78 50.63 627.78 49.62Q627.78 47.81 627.03 46.4Q626.92 46.19 626.79 46Q626.68 45.82 626.55 45.65Q625.58 44.34 623.89 43.57Q621.99 42.68 619.27 42.68Q617.28 42.68 615.7 43.28Q614.12 43.86 612.98 44.89Q612.27 45.52 611.76 46.29Q611.46 46.76 611.22 47.27Q611.02 47.72 610.87 48.18Q610.59 49.14 610.57 50.17Q610.57 50.35 610.64 50.49Q610.68 50.58 610.75 50.65Q610.83 50.72 610.92 50.77Q611.06 50.84 611.24 50.84L615.24 50.84Q615.46 50.84 615.65 50.78Q615.78 50.74 615.89 50.68Q615.94 50.66 615.98 50.63Q616.22 50.46 616.32 50.1Q616.46 49.43 616.79 48.79Q616.96 48.47 617.2 48.2Q617.44 47.95 617.73 47.75Q618.34 47.35 619.27 47.35Q620.57 47.35 621.15 48Q621.18 48.04 621.21 48.07Q621.27 48.16 621.33 48.25Q621.77 48.92 621.77 49.88Q621.77 50.81 620.96 51.86Q620.17 52.92 618.52 54.28Q616.87 55.64 614.31 57.59L610.98 60.85Q610.44 61.27 610.31 61.74Q610.18 62.2 610.18 62.42L610.18 64.7Q610.18 64.83 610.22 64.95Q610.28 65.12 610.42 65.26Q610.52 65.36 610.64 65.42ZM635.9 65.16Q637.58 65.82 639.88 65.82Q642.22 65.82 643.9 65.16Q645.58 64.5 646.68 63.35Q647.03 62.99 647.32 62.59Q647.97 61.71 648.37 60.67Q648.97 59.13 649.06 57.37Q649.09 56.5 649.11 55.4Q649.12 54.29 649.11 53.16Q649.09 52.03 649.06 51.13Q648.97 49.37 648.36 47.85Q647.95 46.83 647.31 45.99Q646.99 45.57 646.62 45.2Q645.51 44.06 643.83 43.42Q642.15 42.78 639.88 42.78Q637.64 42.78 635.96 43.42Q634.28 44.06 633.14 45.2Q632.71 45.63 632.36 46.11Q631.78 46.91 631.41 47.85Q630.82 49.37 630.73 51.13Q630.69 52.03 630.68 53.16Q630.66 54.29 630.68 55.4Q630.69 56.5 630.73 57.37Q630.82 59.13 631.4 60.67Q631.75 61.6 632.3 62.39Q632.66 62.9 633.09 63.35Q634.22 64.5 635.9 65.16ZM641.9 60.54Q641.16 61.17 639.88 61.17Q638.72 61.17 638 60.61Q637.72 60.4 637.51 60.1Q636.74 59.03 636.68 57.21Q636.68 56.28 636.66 55.25Q636.65 54.74 636.65 54.23Q636.65 53.72 636.66 53.21Q636.68 52.18 636.68 51.32Q636.74 49.56 637.49 48.47Q637.69 48.19 637.94 47.98Q638.67 47.38 639.88 47.35Q641.15 47.38 641.89 48.02Q642.12 48.22 642.3 48.47Q643.05 49.56 643.08 51.32Q643.14 52.18 643.15 53.21Q643.16 53.72 643.16 54.23Q643.16 54.74 643.15 55.25Q643.14 56.28 643.08 57.21Q643.05 59.03 642.3 60.1Q642.12 60.35 641.9 60.54ZM658.19 64.36Q658.36 64.44 658.56 64.44L661.19 64.44Q661.31 64.44 661.43 64.4Q661.6 64.35 661.75 64.2Q661.9 64.05 661.96 63.87Q661.99 63.76 661.99 63.64L661.99 57.78L667.66 57.78Q667.91 57.78 668.09 57.67Q668.17 57.63 668.23 57.57Q668.3 57.5 668.35 57.41Q668.46 57.23 668.46 56.98L668.46 54.64Q668.46 54.42 668.36 54.25Q668.31 54.14 668.23 54.06Q668.14 53.96 668.04 53.91Q667.87 53.82 667.66 53.82L661.99 53.82L661.99 48.15Q661.99 47.94 661.9 47.77Q661.85 47.67 661.75 47.58Q661.62 47.45 661.45 47.4Q661.33 47.35 661.19 47.35L658.56 47.35Q658.33 47.35 658.16 47.45Q658.06 47.5 657.99 47.58Q657.92 47.64 657.88 47.72Q657.77 47.9 657.77 48.15L657.77 53.82L652.07 53.82Q651.88 53.82 651.72 53.89Q651.59 53.95 651.48 54.06Q651.37 54.16 651.31 54.28Q651.24 54.44 651.24 54.64L651.24 56.98Q651.24 57.2 651.33 57.38Q651.39 57.48 651.48 57.57Q651.57 57.64 651.67 57.69Q651.85 57.78 652.07 57.78L657.77 57.78L657.77 63.64Q657.77 63.78 657.81 63.92Q657.87 64.07 657.99 64.2Q658.08 64.3 658.19 64.36Z" fill="#D27722" fill-opacity="1.000000" fill-rule="evenodd"/>
	<path id="Talented Tutors" d="M599.29 90.07L599.29 101.5L600.73 101.5L600.73 97.75L604.16 101.5L606.01 101.5L602.37 97.55L605.87 93.89L604.12 93.89L600.73 97.47L600.73 90.07L599.29 90.07ZM573.61 101.26Q574.58 101.66 575.72 101.66Q577.02 101.66 578.05 101.21Q578.65 100.95 579.16 100.57Q579.53 100.29 579.85 99.96L578.81 98.94Q578.73 99.03 578.64 99.12Q578.16 99.58 577.51 99.87Q576.75 100.21 575.71 100.21Q574.83 100.21 574.09 99.91Q573.69 99.74 573.35 99.49Q573.06 99.28 572.81 99.02Q572.73 98.94 572.67 98.86Q572.23 98.33 571.97 97.66Q571.68 96.87 571.68 95.94Q571.68 95.01 571.97 94.23Q572.23 93.54 572.68 93.01Q572.74 92.94 572.81 92.87Q573.07 92.59 573.38 92.38Q573.71 92.14 574.09 91.98Q574.83 91.67 575.71 91.67Q576.68 91.67 577.44 92.01Q578.02 92.26 578.46 92.66Q578.6 92.79 578.73 92.94L579.77 91.89Q579.42 91.55 579.03 91.26Q578.55 90.92 578.01 90.68Q577.02 90.23 575.71 90.23Q574.55 90.23 573.57 90.64Q573.53 90.65 573.49 90.67Q572.86 90.94 572.33 91.34Q572.01 91.59 571.71 91.89Q571.5 92.11 571.32 92.34Q570.84 92.95 570.54 93.7Q570.54 93.71 570.53 93.71Q570.12 94.75 570.12 95.94Q570.12 97 570.45 97.94Q570.49 98.05 570.54 98.17Q570.82 98.87 571.26 99.46Q571.47 99.74 571.71 99.99Q572 100.29 572.33 100.54Q572.86 100.94 573.5 101.22Q573.55 101.24 573.61 101.26ZM635.09 101.26Q636.07 101.66 637.21 101.66Q638.51 101.66 639.54 101.21Q640.14 100.95 640.65 100.57Q641.02 100.29 641.34 99.96L640.3 98.94Q640.21 99.03 640.13 99.12Q639.65 99.58 639 99.87Q638.23 100.21 637.19 100.21Q636.32 100.21 635.58 99.91Q635.18 99.74 634.84 99.49Q634.55 99.28 634.3 99.02Q634.22 98.94 634.15 98.86Q633.71 98.33 633.46 97.66Q633.16 96.87 633.16 95.94Q633.16 95.01 633.46 94.23Q633.72 93.54 634.17 93.01Q634.23 92.94 634.3 92.87Q634.56 92.59 634.87 92.38Q635.2 92.14 635.58 91.98Q636.32 91.67 637.19 91.67Q638.17 91.67 638.93 92.01Q639.51 92.26 639.95 92.66Q640.09 92.79 640.22 92.94L641.26 91.89Q640.91 91.55 640.51 91.26Q640.04 90.92 639.5 90.68Q638.51 90.23 637.19 90.23Q636.04 90.23 635.05 90.64Q635.02 90.65 634.98 90.67Q634.35 90.94 633.82 91.34Q633.49 91.59 633.2 91.89Q632.99 92.11 632.8 92.34Q632.33 92.95 632.03 93.7L632.02 93.71Q631.61 94.75 631.61 95.94Q631.61 97 631.94 97.94Q631.98 98.05 632.03 98.17Q632.31 98.87 632.75 99.46Q632.96 99.74 633.2 99.99Q633.49 100.29 633.82 100.54Q634.35 100.94 634.99 101.22Q635.04 101.24 635.09 101.26ZM607.25 92.26Q607.45 92.37 607.71 92.37Q607.96 92.37 608.16 92.27Q608.27 92.21 608.36 92.11Q608.46 92.01 608.52 91.9Q608.62 91.7 608.62 91.45Q608.62 91.22 608.53 91.04Q608.46 90.91 608.36 90.8Q608.27 90.7 608.15 90.64Q607.96 90.53 607.71 90.53Q607.45 90.53 607.25 90.64Q607.14 90.7 607.05 90.8Q606.95 90.9 606.89 91.03Q606.79 91.21 606.79 91.45Q606.79 91.7 606.9 91.91Q606.96 92.02 607.05 92.11Q607.14 92.2 607.25 92.26ZM691.18 92.26Q691.38 92.37 691.64 92.37Q691.9 92.37 692.1 92.27Q692.21 92.21 692.3 92.11Q692.39 92.01 692.45 91.9Q692.55 91.7 692.55 91.45Q692.55 91.22 692.46 91.04Q692.4 90.91 692.3 90.8Q692.2 90.7 692.09 90.64Q691.89 90.53 691.64 90.53Q691.39 90.53 691.19 90.64Q691.08 90.7 690.98 90.8Q690.88 90.9 690.82 91.03Q690.73 91.21 690.73 91.45Q690.73 91.7 690.83 91.91Q690.89 92.02 690.98 92.11Q691.07 92.2 691.18 92.26ZM653.11 95.21L653.11 101.5L654.55 101.5L654.55 95.21L656.43 95.21L656.43 93.89L654.55 93.89L654.55 90.71L653.11 90.71L653.11 93.89L651.24 93.89L651.24 95.21L653.11 95.21ZM583.06 101.34Q583.78 101.66 584.65 101.66Q585.43 101.66 586.1 101.39Q586.39 101.28 586.66 101.13Q587.12 100.86 587.49 100.49Q587.83 100.14 588.09 99.7Q588.23 99.47 588.33 99.22Q588.62 98.5 588.62 97.67Q588.62 96.87 588.34 96.18Q588.24 95.92 588.09 95.67Q587.84 95.24 587.5 94.9Q587.13 94.53 586.66 94.26Q586.4 94.11 586.12 94Q585.44 93.73 584.65 93.73Q583.8 93.73 583.07 94.04Q582.85 94.14 582.63 94.26Q582.17 94.54 581.8 94.91Q581.46 95.25 581.21 95.68Q581.07 95.91 580.97 96.15Q580.68 96.85 580.68 97.67Q580.68 98.5 580.97 99.22Q581.07 99.47 581.21 99.7Q581.49 100.18 581.88 100.55Q582.22 100.88 582.63 101.13Q582.84 101.25 583.06 101.34ZM592.11 101.34Q592.84 101.66 593.71 101.66Q594.48 101.66 595.16 101.39Q595.45 101.28 595.71 101.13Q596.18 100.86 596.54 100.49Q596.89 100.14 597.15 99.7Q597.28 99.47 597.38 99.22Q597.67 98.5 597.67 97.67Q597.67 96.87 597.4 96.18Q597.29 95.92 597.15 95.67Q596.9 95.24 596.56 94.9Q596.19 94.53 595.71 94.26Q595.45 94.11 595.18 94Q594.49 93.73 593.71 93.73Q592.85 93.73 592.13 94.04Q591.9 94.14 591.69 94.26Q591.23 94.54 590.86 94.91Q590.52 95.25 590.26 95.68Q590.13 95.91 590.03 96.15Q589.74 96.85 589.74 97.67Q589.74 98.5 590.03 99.22Q590.13 99.47 590.26 99.7Q590.55 100.18 590.93 100.55Q591.27 100.88 591.69 101.13Q591.9 101.25 592.11 101.34ZM615.93 97.06L615.93 101.5L617.37 101.5L617.37 96.78Q617.37 96.42 617.29 96.08Q617.19 95.67 616.99 95.3Q616.79 94.95 616.53 94.66Q616.27 94.38 615.94 94.17Q615.79 94.07 615.62 93.99Q615.07 93.73 614.41 93.73Q613.71 93.73 613.12 93.99Q612.99 94.05 612.86 94.13Q612.46 94.35 612.17 94.67Q612.08 94.77 611.99 94.87L611.99 93.89L610.55 93.89L610.55 101.5L611.99 101.5L611.99 97.06Q611.99 96.54 612.21 96.12Q612.23 96.08 612.25 96.04Q612.39 95.8 612.58 95.62Q612.75 95.46 612.95 95.34Q613 95.31 613.05 95.29Q613.46 95.08 613.98 95.08Q614.55 95.08 614.99 95.33Q615.2 95.45 615.39 95.64Q615.57 95.82 615.69 96.04Q615.93 96.48 615.93 97.06ZM621.01 101.08Q621.68 101.37 622.47 101.37Q623.36 101.37 624.04 101.02Q624.45 100.81 624.76 100.49Q624.91 100.35 625.04 100.18L625.04 101.19Q625.04 101.9 624.72 102.41Q624.57 102.65 624.35 102.85Q624.3 102.9 624.24 102.94Q623.58 103.46 622.5 103.46Q621.63 103.46 620.99 103.15Q620.82 103.07 620.66 102.97Q620.22 102.69 619.88 102.25L618.95 103.19Q619.13 103.45 619.35 103.67Q619.79 104.12 620.4 104.41Q621.31 104.84 622.47 104.84Q623.66 104.84 624.56 104.37Q625.2 104.05 625.64 103.54Q625.82 103.33 625.97 103.09Q626.01 103.02 626.05 102.95Q626.47 102.19 626.47 101.19L626.47 93.89L625.04 93.89L625.04 94.9Q624.92 94.75 624.78 94.61Q624.47 94.3 624.06 94.09Q623.37 93.73 622.47 93.73Q621.7 93.73 621.05 94.01Q620.82 94.11 620.61 94.24Q620.26 94.45 619.97 94.73Q619.58 95.11 619.31 95.6Q619.25 95.7 619.2 95.81Q618.83 96.58 618.83 97.54Q618.83 98.47 619.18 99.25Q619.24 99.38 619.31 99.5Q619.61 100.05 620.04 100.44Q620.3 100.68 620.61 100.87Q620.8 100.99 621.01 101.08ZM644.61 101.43Q645.21 101.66 645.9 101.66Q646.78 101.66 647.46 101.3Q647.83 101.1 648.12 100.81Q648.29 100.65 648.43 100.47L648.43 101.5L649.88 101.5L649.88 93.89L648.43 93.89L648.43 94.93Q648.29 94.75 648.13 94.59Q647.83 94.3 647.44 94.1Q647.41 94.08 647.38 94.07Q646.73 93.73 645.9 93.73Q645.16 93.73 644.52 93.99Q644.25 94.11 644 94.26Q643.68 94.47 643.41 94.72Q642.98 95.13 642.67 95.69Q642.61 95.81 642.55 95.94Q642.18 96.74 642.18 97.7Q642.18 98.67 642.55 99.48Q642.61 99.6 642.67 99.72Q642.96 100.25 643.38 100.65Q643.66 100.92 644.01 101.14Q644.3 101.31 644.61 101.43ZM659.48 101.34Q660.23 101.66 661.11 101.66Q661.82 101.66 662.46 101.45Q662.63 101.39 662.8 101.32Q663.28 101.12 663.67 100.8Q663.92 100.6 664.14 100.34L663.21 99.4Q663 99.64 662.75 99.82Q662.53 99.97 662.29 100.07Q661.75 100.3 661.11 100.3Q660.38 100.3 659.8 99.99Q659.78 99.98 659.75 99.97Q659.47 99.81 659.24 99.59Q659.01 99.35 658.84 99.04Q658.65 98.67 658.57 98.23L664.52 98.23Q664.57 97.99 664.59 97.81Q664.6 97.62 664.6 97.46Q664.6 96.46 664.2 95.65Q664.17 95.6 664.14 95.54Q663.88 95.05 663.51 94.69Q663.23 94.42 662.88 94.21Q662.79 94.16 662.7 94.11Q661.96 93.73 661.02 93.73Q660.19 93.73 659.48 94.03Q659.25 94.13 659.03 94.26Q658.61 94.5 658.28 94.82Q657.9 95.19 657.62 95.67Q657.51 95.86 657.42 96.06Q657.1 96.8 657.1 97.69Q657.1 98.61 657.44 99.37Q657.52 99.55 657.62 99.72Q657.88 100.14 658.21 100.48Q658.59 100.86 659.07 101.14Q659.27 101.25 659.48 101.34ZM658.57 97.03Q658.65 96.62 658.83 96.28Q658.99 95.96 659.24 95.72Q659.44 95.53 659.69 95.38Q659.7 95.38 659.71 95.37Q660.26 95.06 660.99 95.06Q661.69 95.06 662.19 95.36Q662.38 95.47 662.54 95.62Q662.79 95.86 662.95 96.19Q663.14 96.56 663.2 97.03L658.57 97.03ZM667.86 101.08Q668.53 101.37 669.32 101.37Q670.2 101.37 670.89 101.02Q671.3 100.81 671.61 100.49Q671.76 100.35 671.88 100.18L671.88 101.19Q671.88 101.9 671.57 102.41Q671.42 102.65 671.2 102.85Q671.15 102.9 671.09 102.94Q670.43 103.46 669.35 103.46Q668.47 103.46 667.83 103.15Q667.67 103.07 667.51 102.97Q667.07 102.69 666.73 102.25L665.8 103.19Q665.98 103.45 666.2 103.67Q666.64 104.12 667.25 104.41Q668.15 104.84 669.32 104.84Q670.51 104.84 671.41 104.37Q672.05 104.05 672.49 103.54Q672.67 103.33 672.82 103.09Q672.86 103.02 672.9 102.95Q673.32 102.19 673.32 101.19L673.32 93.89L671.88 93.89L671.88 94.9Q671.77 94.75 671.63 94.61Q671.32 94.3 670.91 94.09Q670.22 93.73 669.32 93.73Q668.55 93.73 667.89 94.01Q667.67 94.11 667.46 94.24Q667.11 94.45 666.82 94.73Q666.43 95.11 666.15 95.6Q666.1 95.7 666.05 95.81Q665.67 96.58 665.67 97.54Q665.67 98.47 666.02 99.25Q666.08 99.38 666.15 99.5Q666.45 100.05 666.89 100.44Q667.15 100.68 667.46 100.87Q667.65 100.99 667.86 101.08ZM677.31 101.34Q678.04 101.66 678.91 101.66Q679.68 101.66 680.36 101.39Q680.65 101.28 680.91 101.13Q681.38 100.86 681.74 100.49Q682.09 100.14 682.35 99.7Q682.48 99.47 682.58 99.22Q682.87 98.5 682.87 97.67Q682.87 96.87 682.6 96.18Q682.49 95.92 682.35 95.67Q682.1 95.24 681.76 94.9Q681.39 94.53 680.91 94.26Q680.65 94.11 680.38 94Q679.69 93.73 678.91 93.73Q678.05 93.73 677.33 94.04Q677.1 94.14 676.89 94.26Q676.43 94.54 676.06 94.91Q675.72 95.25 675.46 95.68Q675.33 95.91 675.23 96.15Q674.94 96.85 674.94 97.67Q674.94 98.5 675.23 99.22Q675.33 99.47 675.46 99.7Q675.75 100.18 676.13 100.55Q676.47 100.88 676.89 101.13Q677.1 101.25 677.31 101.34ZM685.93 97.16L685.93 101.5L684.49 101.5L684.49 93.89L685.93 93.89L685.93 94.78Q685.99 94.69 686.06 94.6Q686.28 94.32 686.56 94.13Q687.14 93.73 687.99 93.73Q688.57 93.73 689.03 93.94Q689.5 94.14 689.9 94.6L688.95 95.57Q688.72 95.32 688.43 95.21Q688.14 95.1 687.75 95.1Q687.22 95.1 686.81 95.33Q686.61 95.44 686.44 95.61Q685.93 96.12 685.93 97.16ZM696.38 101.34Q697.13 101.66 698.01 101.66Q698.72 101.66 699.36 101.45Q699.53 101.39 699.7 101.32Q700.18 101.12 700.57 100.8Q700.82 100.6 701.04 100.34L700.11 99.4Q699.9 99.64 699.64 99.82Q699.43 99.97 699.18 100.07Q698.65 100.3 698.01 100.3Q697.27 100.3 696.7 99.99Q696.67 99.98 696.65 99.97Q696.36 99.81 696.14 99.59Q695.9 99.35 695.74 99.04Q695.54 98.67 695.47 98.23L701.42 98.23Q701.47 97.99 701.48 97.81Q701.5 97.62 701.5 97.46Q701.5 96.46 701.1 95.65Q701.07 95.6 701.04 95.54Q700.78 95.05 700.4 94.69Q700.12 94.42 699.78 94.21Q699.69 94.16 699.6 94.11Q698.85 93.73 697.91 93.73Q697.08 93.73 696.38 94.03Q696.14 94.13 695.92 94.26Q695.51 94.5 695.17 94.82Q694.79 95.19 694.51 95.67Q694.4 95.86 694.32 96.06Q693.99 96.8 693.99 97.69Q693.99 98.61 694.34 99.37Q694.42 99.55 694.52 99.72Q694.77 100.14 695.11 100.48Q695.48 100.86 695.96 101.14Q696.16 101.25 696.38 101.34ZM695.47 97.03Q695.54 96.62 695.72 96.28Q695.89 95.96 696.13 95.72Q696.33 95.53 696.59 95.38Q696.6 95.38 696.61 95.37Q697.16 95.06 697.88 95.06Q698.59 95.06 699.08 95.36Q699.27 95.47 699.43 95.62Q699.68 95.86 699.85 96.19Q700.04 96.56 700.09 97.03L695.47 97.03ZM704.27 101.49Q704.84 101.66 705.48 101.66Q706.76 101.66 707.52 101.03Q707.82 100.79 708 100.48Q708.28 99.99 708.28 99.33Q708.28 98.63 707.99 98.2Q707.85 98 707.68 97.84Q707.47 97.65 707.23 97.51Q707.16 97.48 707.09 97.44Q706.69 97.24 706.25 97.1Q705.74 96.95 705.26 96.81Q704.8 96.66 704.51 96.46Q704.39 96.37 704.32 96.26Q704.22 96.09 704.22 95.86Q704.22 95.68 704.29 95.54Q704.37 95.38 704.55 95.26Q704.87 95.05 705.5 95.05Q706.09 95.05 706.56 95.27Q706.79 95.38 706.99 95.54Q707.19 95.7 707.35 95.91L708.28 94.98Q708.04 94.65 707.73 94.4Q707.46 94.19 707.14 94.05Q706.44 93.73 705.55 93.73Q704.7 93.73 704.1 94.01Q703.64 94.22 703.33 94.56Q703.24 94.67 703.16 94.78Q703.12 94.85 703.08 94.93Q702.83 95.38 702.83 95.98Q702.83 96.66 703.12 97.08Q703.23 97.23 703.36 97.36Q703.59 97.58 703.88 97.74Q704.35 97.98 704.87 98.13Q705.39 98.28 705.85 98.43Q706.32 98.58 706.61 98.82Q706.72 98.9 706.79 99.01Q706.91 99.2 706.91 99.46Q706.91 99.65 706.83 99.8Q706.74 99.98 706.54 100.11Q706.17 100.34 705.5 100.34Q704.83 100.34 704.28 100.1Q704.25 100.08 704.22 100.07Q703.71 99.82 703.32 99.33L702.39 100.27Q702.45 100.34 702.51 100.4Q702.82 100.75 703.23 101.01Q703.29 101.05 703.36 101.09Q703.78 101.34 704.27 101.49ZM606.98 93.89L606.98 101.5L608.43 101.5L608.43 93.89L606.98 93.89ZM690.92 93.89L690.92 101.5L692.36 101.5L692.36 93.89L690.92 93.89ZM623.97 99.72Q623.45 100.01 622.76 100.01Q622.08 100.01 621.55 99.73Q621.52 99.71 621.49 99.69Q621.23 99.55 621.03 99.35Q620.79 99.12 620.63 98.82Q620.61 98.8 620.6 98.77Q620.31 98.23 620.31 97.54Q620.31 96.85 620.6 96.32Q620.61 96.29 620.63 96.27Q620.8 95.96 621.05 95.72Q621.25 95.54 621.48 95.41Q621.5 95.4 621.51 95.39Q622.05 95.1 622.75 95.1Q623.46 95.1 623.99 95.41Q624.22 95.54 624.41 95.72Q624.65 95.96 624.82 96.27Q625.11 96.82 625.11 97.56Q625.11 98.3 624.83 98.85Q624.68 99.12 624.47 99.34Q624.27 99.55 624 99.7Q623.99 99.71 623.97 99.72ZM647.34 100Q646.83 100.3 646.14 100.3Q645.55 100.3 645.07 100.07Q644.96 100.02 644.86 99.96Q644.6 99.81 644.4 99.61Q644.16 99.36 643.99 99.04Q643.67 98.46 643.67 97.69Q643.67 96.94 643.99 96.35Q644.17 96 644.45 95.74Q644.63 95.57 644.85 95.43Q644.94 95.38 645.03 95.34Q645.52 95.1 646.12 95.1Q646.78 95.1 647.29 95.37Q647.34 95.4 647.38 95.42Q647.61 95.56 647.79 95.74Q648.05 96 648.22 96.34Q648.52 96.92 648.52 97.7Q648.52 98.58 648.13 99.22Q648.01 99.41 647.86 99.57Q647.63 99.83 647.34 100ZM670.82 99.72Q670.3 100.01 669.61 100.01Q668.93 100.01 668.4 99.73Q668.37 99.71 668.34 99.69Q668.08 99.55 667.88 99.35Q667.64 99.12 667.47 98.82Q667.46 98.8 667.44 98.77Q667.16 98.23 667.16 97.54Q667.16 96.85 667.45 96.32Q667.46 96.29 667.47 96.27Q667.65 95.96 667.9 95.72Q668.09 95.54 668.33 95.41Q668.35 95.4 668.36 95.39Q668.9 95.1 669.59 95.1Q670.31 95.1 670.84 95.41Q671.07 95.54 671.26 95.72Q671.5 95.96 671.67 96.27Q671.96 96.82 671.96 97.56Q671.96 98.3 671.67 98.85Q671.53 99.12 671.32 99.34Q671.12 99.55 670.85 99.7Q670.84 99.71 670.82 99.72ZM585.73 100.03Q585.25 100.27 584.65 100.27Q584.06 100.27 583.58 100.04Q583.47 99.99 583.37 99.93Q583.13 99.78 582.93 99.59Q582.67 99.34 582.49 99.01Q582.48 98.99 582.47 98.97Q582.17 98.4 582.17 97.67Q582.17 97 582.44 96.46Q582.46 96.41 582.49 96.36Q582.67 96.03 582.93 95.78Q583.13 95.6 583.37 95.46Q583.45 95.41 583.54 95.37Q584.04 95.13 584.65 95.13Q585.29 95.13 585.79 95.39Q585.86 95.42 585.92 95.46Q586.13 95.58 586.31 95.74Q586.6 96.01 586.8 96.36Q586.84 96.43 586.87 96.5Q587.13 97.02 587.13 97.67Q587.13 98.4 586.83 98.97Q586.82 98.99 586.81 99.01Q586.63 99.33 586.38 99.58Q586.18 99.78 585.93 99.93Q585.83 99.99 585.73 100.03ZM594.79 100.03Q594.3 100.27 593.71 100.27Q593.12 100.27 592.63 100.04Q592.53 99.99 592.42 99.93Q592.18 99.78 591.99 99.59Q591.73 99.34 591.55 99.01Q591.53 98.99 591.53 98.97Q591.23 98.4 591.23 97.67Q591.23 97 591.49 96.46Q591.52 96.41 591.55 96.36Q591.73 96.03 591.99 95.78Q592.19 95.6 592.42 95.46Q592.51 95.41 592.6 95.37Q593.09 95.13 593.71 95.13Q594.34 95.13 594.85 95.39Q594.91 95.42 594.98 95.46Q595.19 95.58 595.37 95.74Q595.65 96.01 595.86 96.36Q595.9 96.43 595.93 96.5Q596.19 97.02 596.19 97.67Q596.19 98.4 595.89 98.97Q595.88 98.99 595.87 99.01Q595.69 99.33 595.44 99.58Q595.24 99.78 594.98 99.93Q594.89 99.99 594.79 100.03ZM679.99 100.03Q679.5 100.27 678.91 100.27Q678.32 100.27 677.83 100.04Q677.73 99.99 677.62 99.93Q677.38 99.78 677.19 99.59Q676.93 99.34 676.75 99.01Q676.74 98.99 676.73 98.97Q676.43 98.4 676.43 97.67Q676.43 97 676.69 96.46Q676.72 96.41 676.75 96.36Q676.93 96.03 677.19 95.78Q677.39 95.6 677.62 95.46Q677.71 95.41 677.8 95.37Q678.29 95.13 678.91 95.13Q679.54 95.13 680.05 95.39Q680.11 95.42 680.18 95.46Q680.39 95.58 680.57 95.74Q680.86 96.01 681.06 96.36Q681.1 96.43 681.13 96.5Q681.39 97.02 681.39 97.67Q681.39 98.4 681.09 98.97Q681.08 98.99 681.07 99.01Q680.89 99.33 680.64 99.58Q680.44 99.78 680.18 99.93Q680.09 99.99 679.99 100.03Z" fill="#403D39" fill-opacity="1.000000" fill-rule="evenodd"/>
	<rect id="Landing Stats" rx="15.500000" width="737.000000" height="142.000000" transform="translate(0.500000 0.500000)" stroke="#FFDBB8" stroke-opacity="1.000000" stroke-width="1.000000"/>
</svg>
